<?xml version="1.0" standalone="no"?>
<!DOCTYPE svg PUBLIC "-//W3C//DTD SVG 20010904//EN"
 "http://www.w3.org/TR/2001/REC-SVG-20010904/DTD/svg10.dtd">
<svg version="1.0" xmlns="http://www.w3.org/2000/svg"
 width="1020.000000pt" height="1020.000000pt" viewBox="0 0 1020.000000 1020.000000"
 preserveAspectRatio="xMidYMid meet">
<metadata>
Created by potrace 1.11, written by Peter Selinger 2001-2013
</metadata>
<g transform="translate(0.000000,1020.000000) scale(0.100000,-0.100000)"
fill="#000000" stroke="none">
<path d="M9159 9986 c-61 -16 -112 -64 -135 -129 -5 -14 -13 -16 -40 -11 -26
5 -35 2 -40 -10 -7 -19 -50 -22 -57 -3 -3 9 -7 9 -17 0 -16 -15 -5 -63 15 -63
8 0 15 -4 15 -8 0 -5 20 -19 45 -31 55 -27 60 -35 41 -62 -10 -15 -12 -28 -6
-44 5 -12 11 -58 14 -101 6 -73 15 -93 41 -94 6 0 10 -29 10 -68 0 -65 -1 -68
-22 -64 -26 5 -31 27 -8 36 8 3 12 12 9 20 -6 17 -24 17 -37 1 -5 -5 -6 4 -3
20 6 28 5 29 -9 11 -12 -16 -17 -17 -31 -5 -9 8 -18 12 -18 10 -1 -2 -11 -1
-24 3 -14 5 -27 2 -37 -8 -19 -19 -19 -25 5 -93 20 -58 27 -133 12 -133 -5 0
-15 -11 -22 -25 -7 -13 -17 -22 -21 -19 -13 8 -22 -17 -10 -29 9 -9 14 -8 21
3 12 20 20 9 13 -18 -4 -17 -11 -21 -24 -17 -21 7 -23 2 -9 -25 6 -12 6 -28
-1 -49 -9 -26 -14 -29 -30 -21 -13 7 -19 7 -19 0 0 -5 4 -10 10 -10 5 0 6 -7
3 -17 -4 -11 -3 -14 5 -9 19 11 14 -5 -5 -19 -13 -10 -23 -10 -37 -3 -26 14
-54 -23 -54 -70 0 -18 -3 -36 -6 -39 -3 -4 -6 10 -6 31 0 22 -5 39 -14 42 -8
3 -17 16 -20 28 -3 13 -16 34 -30 47 -13 13 -25 33 -27 44 -3 11 -14 21 -26
23 -21 3 -21 1 -16 -75 3 -43 16 -115 29 -159 25 -86 31 -144 14 -144 -5 0
-10 -6 -10 -13 0 -8 -9 -22 -20 -32 -11 -10 -17 -22 -13 -28 3 -5 2 -7 -4 -4
-5 3 -8 20 -5 37 2 17 0 30 -6 30 -12 0 -23 30 -28 70 -8 67 -12 75 -54 101
-46 29 -60 29 -60 1 0 -9 -7 -26 -15 -36 -16 -22 -20 -66 -6 -66 5 0 12 16 15
35 8 43 31 38 31 -8 0 -22 5 -32 15 -32 8 0 14 8 14 18 -1 10 3 16 9 14 11 -3
36 -89 36 -127 l1 -25 -20 25 c-11 14 -20 32 -20 40 0 8 -12 20 -26 27 l-26
12 4 -54 c4 -53 -8 -76 -19 -35 -3 11 -10 20 -15 20 -13 0 1 -71 18 -91 8 -8
14 -22 14 -29 0 -7 12 -29 27 -48 25 -34 45 -109 45 -172 0 -14 11 -40 25 -59
21 -27 23 -35 12 -42 -8 -5 -20 -9 -26 -9 -7 0 -13 -4 -13 -9 0 -4 -11 -6 -25
-3 -24 4 -25 3 -22 -52 1 -31 -1 -56 -5 -56 -5 0 -8 -4 -8 -10 0 -14 28 -12
33 3 2 6 8 9 12 5 10 -10 -13 -38 -31 -38 -8 0 -14 -6 -14 -13 0 -8 -7 -28
-15 -44 -14 -28 -14 -35 3 -74 22 -55 21 -158 -3 -171 -17 -10 -21 -63 -5 -73
6 -3 10 -18 10 -32 l0 -27 -31 30 c-17 16 -35 39 -40 52 -10 26 -29 21 -29 -9
0 -11 -7 -22 -15 -26 -24 -9 -30 5 -12 25 19 20 23 52 7 52 -5 0 -10 -6 -10
-14 0 -22 -27 -27 -33 -5 -5 20 -37 17 -37 -5 0 -6 -9 -22 -20 -36 -11 -14
-20 -32 -20 -40 0 -8 -7 -28 -15 -44 -8 -15 -15 -38 -15 -50 0 -11 -7 -30 -16
-41 -10 -13 -14 -38 -13 -74 2 -46 -1 -56 -22 -72 -13 -10 -27 -19 -30 -19 -4
0 -21 -13 -38 -29 -35 -32 -40 -58 -13 -68 16 -6 32 -22 32 -33 0 -3 -13 -11
-30 -18 -20 -9 -30 -21 -30 -35 0 -16 -3 -18 -9 -8 -5 7 -6 22 -4 32 3 10 0
19 -6 19 -6 0 -11 -5 -11 -12 0 -6 -7 -19 -15 -29 -9 -9 -18 -32 -19 -50 -6
-56 -16 -78 -34 -72 -12 5 -14 1 -9 -18 4 -13 7 -27 7 -31 0 -5 7 -8 15 -8 8
0 15 -4 15 -10 0 -5 -7 -10 -15 -10 -8 0 -15 5 -15 10 0 6 -4 10 -10 10 -14 0
-13 -37 2 -42 7 -3 9 -14 5 -29 -9 -32 -24 -55 -32 -47 -4 3 -1 15 6 26 10 17
10 26 0 49 -13 26 -14 27 -22 8 -11 -29 -11 -105 1 -105 6 0 10 -9 10 -20 0
-11 -4 -20 -10 -20 -5 0 -10 -15 -10 -33 0 -18 -7 -57 -16 -86 -15 -52 -16
-53 -46 -47 -24 5 -31 2 -35 -14 -6 -22 -18 -26 -28 -10 -13 20 -25 9 -19 -17
6 -22 4 -25 -10 -20 -9 4 -27 2 -40 -4 -26 -12 -40 -65 -30 -106 5 -19 2 -23
-15 -23 -20 0 -22 -5 -20 -56 2 -39 -2 -58 -11 -64 -12 -7 -11 -10 4 -16 14
-5 17 -14 12 -35 -3 -16 -3 -36 0 -44 7 -17 34 -21 34 -4 0 5 5 7 11 3 8 -5 8
-9 -1 -14 -9 -5 -9 -13 -1 -27 12 -24 3 -37 -14 -23 -19 16 -68 -26 -56 -48
17 -33 21 -167 8 -260 -15 -103 -26 -124 -54 -100 -10 8 -24 13 -30 11 -8 -3
-13 4 -13 17 0 16 4 20 15 16 13 -4 14 2 9 37 -3 23 -10 55 -16 70 -6 16 -8
54 -4 92 9 85 -5 92 -61 30 -23 -26 -43 -49 -43 -50 0 -1 7 -22 16 -46 11 -32
16 -90 17 -210 l2 -167 -37 29 c-20 16 -51 32 -70 35 -18 4 -41 14 -51 22 -16
14 -19 14 -27 2 -5 -8 -7 -22 -5 -31 3 -9 -1 -22 -10 -29 -16 -13 -20 -36 -7
-42 5 -1 32 -29 61 -61 l53 -59 -3 -91 c-2 -64 0 -92 9 -95 7 -2 12 -10 12
-17 0 -19 -27 -26 -40 -9 -14 16 -50 19 -50 5 0 -6 5 -13 10 -16 6 -4 7 -11 4
-17 -4 -6 -9 -5 -15 3 -4 7 -11 10 -15 7 -3 -4 4 -21 16 -38 34 -48 38 -145
10 -237 -12 -39 -22 -93 -23 -120 -2 -49 -36 -113 -60 -113 -16 1 -57 36 -57
49 0 5 -16 22 -35 37 -33 25 -39 26 -72 16 -37 -11 -58 -8 -48 9 12 18 -69
135 -151 218 -84 84 -85 84 -121 75 -40 -10 -86 -64 -81 -93 2 -9 32 -35 68
-59 65 -42 129 -106 130 -129 0 -24 -33 -13 -69 21 -89 84 -115 106 -122 106
-23 0 -89 -34 -89 -45 0 -7 25 -38 55 -69 30 -30 55 -62 55 -71 0 -8 -2 -15
-4 -15 -16 0 -126 60 -144 78 -28 28 -63 25 -77 -6 -5 -13 -20 -25 -32 -29
-32 -7 -28 -35 7 -55 16 -9 32 -28 36 -42 8 -32 -2 -76 -17 -76 -16 0 -128
110 -146 143 -15 29 -11 63 6 52 11 -6 36 34 26 43 -3 3 -20 11 -38 17 -17 5
-37 21 -44 35 -22 47 -79 100 -107 100 -20 0 -24 -4 -19 -17 3 -10 11 -24 17
-32 5 -7 15 -23 21 -34 6 -12 19 -23 30 -25 25 -5 71 -55 55 -60 -6 -2 -18 5
-26 17 -8 12 -23 21 -32 21 -15 -1 -14 -3 3 -16 11 -8 19 -20 17 -25 -1 -5 5
-12 13 -15 23 -9 18 -33 -10 -44 -20 -8 -25 -16 -23 -37 2 -23 -1 -27 -17 -25
-11 2 -51 3 -88 4 l-68 1 6 41 c4 22 12 47 17 53 17 21 -11 46 -44 39 -21 -4
-34 0 -49 15 -18 18 -30 21 -75 17 l-54 -5 0 33 c0 18 5 34 12 36 19 7 11 150
-9 165 -30 23 -57 14 -99 -30 -33 -35 -43 -56 -58 -117 -15 -66 -16 -89 -6
-190 6 -63 13 -122 16 -131 2 -9 0 -27 -5 -40 -9 -23 -10 -23 -10 -3 -1 12 -8
24 -16 28 -8 3 -15 12 -15 21 0 8 -5 15 -10 15 -6 0 -16 11 -22 25 -6 14 -19
25 -29 25 -13 0 -18 7 -16 23 2 22 0 22 -128 25 -71 1 -134 7 -139 12 -16 16
-44 12 -55 -7 -9 -17 -11 -16 -30 1 -19 17 -28 18 -132 6 -61 -6 -128 -19
-148 -27 -20 -9 -55 -15 -78 -15 -34 1 -46 -4 -63 -25 -24 -31 -26 -76 -4 -98
9 -9 15 -17 13 -19 -16 -12 -103 -46 -117 -46 -27 0 -72 -61 -72 -96 0 -13 -3
-14 -14 -5 -11 10 -16 8 -21 -8 -3 -12 -13 -21 -21 -21 -8 0 -14 -5 -14 -11 0
-5 5 -7 10 -4 6 3 10 0 10 -9 0 -8 -5 -16 -11 -18 -6 -2 -15 -26 -20 -52 -9
-50 0 -76 26 -76 7 0 24 -9 38 -20 31 -25 43 -25 95 0 22 11 52 20 64 20 13 0
30 9 38 19 7 11 18 17 22 14 5 -3 17 2 27 11 10 9 42 21 72 26 30 5 63 12 75
15 16 5 31 -6 69 -52 27 -32 60 -68 74 -79 22 -19 24 -24 12 -38 -7 -9 -17
-14 -21 -11 -4 3 -20 -5 -34 -16 -21 -16 -36 -20 -63 -16 -28 5 -42 1 -68 -18
-17 -14 -36 -25 -42 -25 -5 0 -18 -9 -28 -20 -10 -11 -22 -20 -27 -20 -5 0
-25 -18 -45 -40 -40 -44 -64 -52 -56 -20 6 23 -15 27 -36 7 -11 -9 -14 -9 -18
1 -3 6 -12 12 -20 12 -10 0 -13 6 -9 15 6 16 1 28 -47 108 -32 51 -51 59 -62
25 -7 -24 -9 -21 -19 25 -4 17 -13 27 -25 27 -10 0 -26 9 -36 20 -10 11 -26
20 -37 20 -12 0 -18 7 -18 23 0 32 -8 38 -31 24 -14 -9 -22 -9 -27 -1 -4 6
-18 17 -30 23 -18 10 -23 19 -19 37 3 20 1 23 -13 19 -21 -7 -33 21 -39 88 -3
36 -21 15 -21 -25 0 -61 -12 -74 -34 -38 -9 17 -21 30 -25 30 -5 0 -16 17 -26
37 -40 91 -47 97 -102 96 -9 0 -9 4 -1 17 12 18 11 20 -52 96 -5 7 -15 14 -22
17 -10 4 -10 8 2 16 12 8 10 14 -12 33 -14 13 -28 32 -32 43 -3 11 -16 25 -28
30 -13 6 -24 20 -26 33 -2 12 -8 22 -13 22 -6 0 -7 -5 -3 -11 4 -7 -1 -10 -12
-7 -13 2 -19 12 -18 27 1 27 -23 61 -40 57 -6 -2 -8 -1 -3 1 13 8 7 26 -27 77
-23 35 -42 52 -57 53 -27 2 -38 18 -32 44 5 19 -12 49 -28 49 -5 0 -9 -9 -9
-20 0 -11 7 -20 15 -20 8 0 15 -4 15 -9 0 -5 -9 -7 -20 -4 -16 4 -21 -1 -26
-26 -5 -22 -10 -29 -17 -22 -7 7 -7 18 1 36 14 31 7 72 -13 72 -7 0 -11 -6 -8
-13 2 -6 -1 -15 -8 -20 -9 -5 -10 1 -6 25 5 25 3 33 -11 38 -9 3 -29 15 -45
25 -15 11 -27 16 -27 12 0 -14 69 -152 79 -159 6 -3 11 -17 11 -30 0 -13 5
-25 12 -27 6 -2 9 -12 5 -21 -4 -10 -12 -14 -22 -11 -8 4 -21 1 -28 -5 -8 -6
-30 -10 -51 -9 -28 1 -36 5 -31 16 8 22 -33 53 -61 46 -15 -4 -24 -2 -24 5 0
6 5 11 10 11 19 0 10 38 -10 43 -11 3 -20 9 -18 14 5 18 -33 73 -52 73 -20 0
-20 -5 0 -55 4 -11 12 -33 17 -50 6 -20 14 -29 26 -27 15 2 16 -2 11 -25 -13
-53 -18 -55 -52 -22 -18 17 -32 36 -32 41 0 7 -15 8 -42 3 -24 -5 -57 -7 -73
-7 -20 1 -34 -5 -43 -18 -19 -31 -18 -120 3 -163 20 -43 16 -51 -37 -65 -29
-8 -38 -7 -42 4 -3 8 -9 14 -13 13 -32 -5 -66 5 -92 28 -24 22 -31 36 -31 65
0 29 -3 36 -15 32 -9 -4 -16 3 -20 19 -8 29 -63 73 -76 60 -4 -4 -10 -20 -12
-33 -6 -35 -22 -26 -19 10 3 27 1 30 -27 30 -22 0 -36 8 -52 30 -27 35 -47 44
-65 29 -11 -9 -18 -9 -28 0 -20 17 -30 -3 -29 -60 1 -37 8 -58 33 -93 25 -34
31 -51 26 -70 -5 -21 -3 -26 13 -26 10 0 22 -7 25 -16 8 -21 -68 -55 -108 -47
-27 6 -29 4 -22 -18 12 -39 12 -52 -1 -56 -7 -3 -9 3 -6 16 7 27 -14 27 -36 0
-14 -18 -20 -19 -43 -8 -22 9 -31 9 -42 0 -19 -16 -62 10 -70 43 -8 32 -76 36
-107 5 l-21 -21 -12 23 c-6 13 -21 28 -34 34 -12 5 -22 13 -22 17 0 5 -7 8
-16 8 -11 0 -14 -5 -10 -16 4 -10 0 -18 -13 -21 -11 -3 -22 -11 -25 -19 -3 -8
-12 -14 -20 -14 -8 0 -16 -10 -18 -22 -2 -12 -14 -28 -27 -34 -21 -11 -31 -7
-89 28 -67 41 -95 41 -73 0 16 -30 14 -37 -16 -53 -41 -20 -49 -23 -41 -14 11
12 -11 35 -32 35 -12 0 -21 10 -25 30 -8 35 -20 38 -35 11 -7 -15 -6 -23 5
-35 22 -22 18 -26 -17 -19 -18 3 -43 19 -56 35 -13 15 -29 28 -36 28 -7 0 -21
9 -31 20 -10 11 -20 18 -23 16 -2 -3 -22 6 -43 20 -40 25 -69 31 -69 15 0 -6
5 -13 10 -16 15 -9 12 -25 -4 -19 -7 3 -23 -7 -35 -22 -17 -22 -21 -40 -21
-105 0 -43 4 -80 9 -83 10 -7 44 -106 38 -112 -5 -5 -66 54 -87 86 -28 41
-171 136 -184 123 -12 -13 -5 -23 17 -24 20 -1 20 -2 2 -6 -30 -7 -41 -21 -27
-35 7 -7 12 -22 12 -35 0 -13 5 -23 11 -23 5 0 7 -5 4 -10 -10 -16 -47 -12
-62 7 -8 10 -12 12 -8 6 4 -9 1 -11 -9 -7 -9 3 -16 12 -16 19 0 12 -31 45 -43
45 -14 0 -7 -38 8 -44 8 -3 15 -12 15 -19 0 -8 19 -29 43 -47 23 -19 44 -38
45 -42 2 -4 10 -8 18 -8 9 0 12 -5 9 -10 -14 -22 6 -66 38 -83 32 -18 57 -56
57 -89 0 -13 -8 -18 -25 -18 -14 0 -25 5 -25 10 0 6 -11 15 -25 20 -17 6 -27
20 -31 40 -4 16 -13 30 -20 30 -18 0 -18 -49 0 -75 29 -42 86 -158 86 -175 0
-13 -10 -20 -40 -25 -22 -4 -40 -10 -40 -15 0 -4 -10 -10 -22 -13 -19 -5 -20
-8 -8 -23 12 -14 12 -18 -3 -29 -10 -7 -19 -30 -21 -59 -3 -25 -7 -50 -10 -55
-10 -15 15 -60 36 -66 10 -4 23 -15 28 -26 6 -10 16 -19 23 -19 7 0 17 -8 24
-19 6 -10 25 -21 41 -24 21 -4 32 -15 41 -39 7 -18 17 -40 21 -49 7 -12 1 -24
-22 -44 l-31 -28 26 -14 c15 -7 27 -22 27 -33 0 -10 5 -22 10 -25 8 -5 7 -12
-2 -22 -10 -13 -8 -19 15 -38 l27 -24 -27 -19 c-25 -18 -25 -46 0 -37 12 5 37
-37 37 -62 0 -19 13 -16 33 7 9 11 14 26 11 35 -4 8 -1 15 5 15 6 0 11 12 11
26 0 31 -23 28 -28 -3 -2 -12 -9 -23 -15 -26 -9 -3 -11 7 -9 34 2 22 -1 46 -8
54 -15 18 -6 33 26 46 21 7 23 12 14 28 -14 27 -12 50 8 91 16 33 20 35 77 40
l60 5 -2 38 c-2 31 1 38 12 33 10 -3 15 1 15 11 0 25 49 83 69 83 15 0 18 -7
15 -42 -9 -104 -10 -209 -2 -214 4 -3 8 -14 8 -25 0 -10 5 -19 10 -19 16 0 12
-47 -5 -53 -10 -5 -16 4 -20 31 -10 57 -13 61 -14 15 -1 -24 -5 -43 -11 -43
-5 0 -10 6 -11 13 -1 6 -5 1 -9 -13 -6 -19 -8 -13 -9 30 -1 44 -4 51 -12 37
-6 -10 -9 -38 -7 -62 3 -41 2 -44 -19 -38 -18 4 -23 1 -23 -14 0 -25 20 -50
45 -55 14 -3 5 -10 -31 -23 l-51 -18 3 -66 c1 -36 9 -95 18 -131 22 -94 21
-102 -12 -99 -18 2 -35 -4 -50 -19 -15 -15 -17 -22 -8 -22 17 0 38 -24 29 -33
-3 -4 -11 -2 -18 3 -14 11 -55 -14 -55 -34 0 -18 48 -49 62 -40 7 4 8 3 4 -5
-4 -6 -2 -34 5 -61 9 -37 18 -50 33 -52 15 -2 23 -14 29 -45 5 -26 16 -47 28
-53 10 -6 19 -17 19 -24 0 -21 34 -46 49 -37 7 5 10 14 6 21 -5 8 6 10 41 7
49 -4 49 -4 52 -43 2 -21 9 -42 15 -46 9 -6 8 -11 -3 -18 -10 -6 -16 -6 -18 0
-2 6 -12 10 -23 10 -13 0 -19 6 -17 17 2 10 -3 18 -10 18 -7 0 -17 7 -22 15
-11 17 -11 16 -15 -19 -2 -16 4 -25 16 -28 20 -6 26 -23 8 -23 -6 0 -4 -7 5
-15 8 -8 21 -15 30 -15 8 0 28 -19 45 -43 16 -24 45 -55 64 -70 30 -23 36 -24
41 -10 4 8 2 21 -3 27 -11 14 4 55 24 62 8 4 15 12 15 18 0 23 22 36 43 24 14
-7 22 -7 28 3 11 18 0 32 -22 26 -13 -4 -24 5 -38 29 -11 19 -27 34 -35 34 -8
0 -18 10 -21 21 -5 16 0 28 20 48 18 17 29 22 32 14 3 -7 13 -13 23 -13 24 0
34 -16 15 -24 -8 -3 -15 -11 -15 -17 0 -8 7 -6 18 4 21 19 84 13 103 -9 13
-15 47 -2 63 24 4 8 11 10 15 5 15 -21 63 -51 76 -47 16 6 75 -22 75 -36 0 -6
7 -10 15 -10 9 0 20 -12 25 -26 13 -32 13 -44 0 -44 -5 0 -10 6 -10 14 0 8
-11 17 -25 20 -13 3 -29 15 -35 26 -7 13 -21 20 -41 20 -17 0 -28 4 -25 9 14
21 -99 39 -120 19 -4 -4 -16 -6 -28 -4 -12 2 -15 1 -8 -1 8 -3 11 -11 8 -19
-3 -7 -1 -16 4 -19 22 -13 9 -24 -16 -14 -24 8 -25 8 -14 -6 7 -8 18 -15 24
-15 16 0 46 -37 46 -55 0 -8 5 -15 11 -15 5 0 7 -4 4 -10 -3 -5 0 -10 8 -10 7
0 19 -11 25 -25 6 -14 18 -25 25 -25 8 0 20 -11 27 -25 7 -14 19 -25 25 -25 6
0 24 -13 39 -29 15 -17 46 -49 69 -72 78 -77 85 -81 107 -55 6 8 18 12 26 9 8
-3 17 5 24 21 6 16 17 26 30 26 12 0 20 7 20 18 0 9 3 27 6 39 5 17 -3 31 -31
58 -43 40 -41 54 2 31 16 -8 60 -19 96 -24 57 -7 74 -6 108 10 23 10 46 18 53
18 6 1 28 23 49 50 21 28 46 50 55 50 9 0 35 -11 57 -25 22 -13 52 -25 68 -25
15 0 27 -3 27 -8 0 -4 33 -18 73 -30 59 -19 97 -23 192 -23 100 0 120 -2 131
-17 10 -14 15 -15 25 -4 19 18 39 15 39 -8 0 -11 5 -20 11 -20 6 0 9 -7 5 -15
-4 -10 1 -15 14 -15 11 0 20 -7 20 -15 0 -12 28 -35 42 -35 11 0 2 70 -10 75
-7 3 -10 10 -6 16 3 6 1 14 -5 18 -15 10 -19 65 -5 66 6 0 26 12 45 28 35 29
59 35 59 15 1 -23 29 -51 45 -45 21 9 31 7 27 -5 -1 -5 2 -7 7 -3 6 3 19 0 31
-7 22 -14 28 -32 8 -25 -18 6 -48 -11 -48 -27 0 -8 -16 -33 -35 -56 -40 -47
-41 -50 -21 -50 20 0 86 71 86 93 0 9 5 17 10 17 6 0 10 -6 10 -14 0 -9 7 -12
20 -9 11 3 20 9 20 14 0 5 5 9 11 9 6 0 8 -7 5 -17 -7 -17 9 -33 31 -33 7 0
10 7 7 15 -4 10 0 15 14 15 11 0 22 8 25 20 4 15 14 20 36 20 21 0 31 5 31 15
0 8 -9 15 -20 15 -18 0 -19 3 -10 20 8 15 17 18 39 14 23 -5 30 -2 35 14 4 10
4 27 0 36 -7 18 6 22 22 6 20 -20 57 11 42 33 -8 11 29 37 52 37 23 0 27 -4
23 -20 -5 -19 -4 -19 23 -5 26 13 29 13 35 -2 4 -12 8 -13 13 -5 12 19 27 3
21 -21 -6 -22 -6 -22 10 -2 9 11 20 27 25 35 7 12 12 12 33 1 21 -11 28 -11
51 4 23 16 26 16 26 1 0 -10 8 -16 23 -16 13 0 32 -13 47 -31 14 -17 31 -36
38 -43 7 -6 25 -23 41 -38 19 -18 32 -24 42 -17 11 7 11 9 -3 9 -26 0 -32 19
-12 41 20 23 46 26 38 4 -4 -10 0 -15 13 -15 30 0 33 8 18 51 -12 33 -12 39 0
39 7 0 15 5 17 12 3 7 12 3 24 -10 23 -25 64 -20 64 8 0 23 -42 51 -60 40 -10
-6 -10 -9 1 -13 8 -2 4 -2 -9 0 -22 4 -71 -37 -73 -61 0 -6 -5 0 -10 13 -10
25 1 41 29 41 6 0 12 7 12 15 0 8 6 15 14 15 22 0 27 28 7 35 -10 3 -24 23
-31 45 -7 22 -19 40 -27 40 -7 0 -13 7 -13 15 0 8 -4 15 -10 15 -5 0 -19 21
-30 46 -18 38 -19 51 -10 79 8 24 16 32 27 28 21 -8 63 -48 63 -60 0 -6 11
-10 25 -10 30 0 33 17 5 35 -12 7 -20 23 -20 38 0 14 -4 34 -10 44 -12 22 8
76 39 104 13 12 21 31 21 50 0 17 9 46 20 64 25 41 25 46 -4 62 -21 11 -23 16
-15 37 15 39 11 52 -12 46 -16 -4 -17 -8 -7 -14 11 -7 11 -9 -1 -9 -9 0 -11
-8 -7 -25 7 -26 -10 -72 -22 -61 -3 4 -5 30 -3 59 2 44 7 57 36 84 22 22 40
31 52 27 12 -4 14 -3 6 3 -7 5 -9 14 -4 21 6 10 10 10 20 -2 7 -8 20 -12 28
-9 11 4 14 2 9 -5 -4 -7 -1 -15 8 -18 9 -3 13 -10 10 -16 -8 -12 16 -69 27
-63 4 3 12 -3 18 -12 8 -15 13 -16 31 -5 11 7 25 10 30 7 5 -3 19 -1 31 5 16
9 24 8 37 -3 15 -13 19 -13 30 -1 19 21 33 7 26 -24 -4 -23 -3 -24 6 -9 13 20
50 23 50 5 0 -7 -15 -20 -33 -28 -52 -24 -50 -70 7 -132 37 -41 46 -46 46 -23
0 8 7 15 15 15 8 0 15 -7 15 -15 0 -18 12 -19 28 -3 10 10 15 10 21 -1 7 -10
13 -11 30 -2 23 13 27 26 11 36 -5 3 -10 18 -10 33 0 39 -11 49 -48 49 -48 0
-57 15 -28 46 30 33 36 33 36 4 0 -12 8 -27 19 -34 15 -9 21 -8 35 8 18 22 38
16 34 -9 -1 -10 0 -22 4 -27 8 -14 -2 -65 -13 -65 -5 0 -9 -9 -9 -20 0 -11 4
-20 9 -20 5 0 12 -10 15 -22 l6 -23 15 25 c8 14 14 20 15 15 0 -6 24 -11 53
-11 43 -1 53 -4 55 -20 9 -56 58 -124 89 -124 18 0 17 16 -2 24 -25 9 -17 25
11 23 l27 -2 1 81 c1 50 7 88 15 98 7 8 10 19 8 23 -3 5 2 19 11 31 15 19 22
21 47 13 80 -26 139 -41 157 -41 11 0 22 -8 25 -20 4 -15 11 -18 29 -14 19 5
24 2 24 -14 0 -12 10 -28 22 -36 12 -9 17 -16 10 -16 -6 0 -12 -4 -12 -9 0
-11 59 -33 71 -25 8 5 13 -18 7 -32 -4 -7 43 -33 61 -34 10 0 12 9 7 33 -5 30
-5 31 9 13 22 -29 27 -15 14 43 -13 61 -7 76 10 29 7 -18 17 -41 22 -50 18
-34 10 -59 -21 -71 l-30 -11 22 -23 c21 -22 21 -24 4 -36 -24 -18 -17 -51 12
-55 12 -2 22 1 22 6 0 14 79 44 99 38 44 -14 58 49 22 107 -22 35 -41 48 -41
27 0 -5 -4 -10 -10 -10 -11 0 -1 32 14 42 6 4 21 5 32 2 12 -3 25 -1 28 5 11
17 36 13 36 -5 0 -8 5 -12 11 -9 5 4 39 8 74 10 34 1 68 6 74 9 6 4 16 4 23 0
7 -4 26 -9 43 -11 16 -2 37 -13 46 -24 15 -21 16 -21 23 -3 7 18 8 18 17 1 6
-9 16 -17 23 -17 7 0 34 -20 61 -44 33 -31 63 -48 97 -56 26 -7 48 -15 48 -20
0 -4 28 -10 62 -14 34 -3 73 -14 87 -23 22 -14 50 -17 171 -16 83 0 157 6 174
12 16 7 32 8 35 3 3 -4 35 -16 71 -24 58 -15 97 -21 210 -33 53 -5 94 -17 102
-29 5 -8 13 -8 27 1 11 7 27 10 34 7 9 -3 24 7 37 23 18 24 29 28 73 28 51 0
52 1 52 30 0 17 4 32 9 34 14 6 46 -22 46 -41 0 -14 4 -15 29 -7 17 6 35 17
42 25 6 8 19 14 29 14 9 0 29 12 44 27 45 45 59 -2 21 -69 -31 -54 -32 -72 -4
-65 32 8 47 -34 25 -68 -10 -15 -15 -29 -12 -32 3 -4 44 -7 91 -9 103 -3 129
-15 169 -76 32 -49 56 -61 56 -30 0 26 10 33 31 22 15 -9 19 -4 27 32 6 30 13
42 23 39 8 -2 21 -6 31 -8 16 -5 79 48 151 124 28 30 55 36 41 10 -3 -7 1 -4
9 6 8 9 24 17 35 17 11 0 27 8 34 19 18 25 58 37 58 18 0 -18 63 -31 87 -18
10 5 27 19 37 30 11 12 23 21 29 21 19 0 57 46 57 70 1 43 15 54 68 53 27 0
62 -3 77 -7 20 -5 26 -3 23 6 -3 7 -18 13 -34 13 -22 0 -30 5 -32 21 -5 34 40
39 110 13 l59 -22 15 22 c19 26 54 27 87 1 14 -11 31 -20 39 -20 7 0 28 -9 46
-20 17 -11 32 -15 32 -10 0 16 22 12 35 -7 9 -11 33 -19 74 -23 67 -6 74 -4
84 24 5 13 14 17 33 13 21 -4 25 -1 21 13 -5 21 28 77 37 62 3 -5 -1 -15 -9
-22 -22 -18 -19 -32 21 -107 47 -87 51 -92 73 -86 12 3 27 -6 45 -29 24 -30
26 -31 26 -10 0 28 13 28 32 0 13 -19 18 -21 31 -10 11 9 17 10 22 2 4 -6 14
-9 22 -6 9 4 22 1 30 -6 11 -9 20 -8 43 5 15 10 36 14 45 11 14 -6 16 5 14 97
-2 95 -17 158 -33 142 -3 -4 -13 3 -22 15 -8 12 -21 19 -29 16 -8 -4 -13 -9
-11 -13 2 -3 -2 -14 -9 -24 -8 -12 -15 -14 -20 -8 -3 6 -1 11 4 11 6 0 11 8
11 17 0 9 10 28 23 41 15 17 18 26 10 29 -18 6 -16 23 2 23 11 0 15 12 16 48
1 50 2 55 13 88 5 15 14 20 27 17 18 -5 19 1 19 75 0 92 -11 132 -38 132 -10
0 -22 4 -27 9 -6 4 -30 13 -54 19 l-43 10 6 -28 c7 -39 -3 -43 -37 -14 -27 23
-29 44 -5 44 7 0 22 10 35 22 16 15 39 23 70 25 25 1 50 7 53 14 6 8 9 8 14 0
21 -33 26 3 26 174 l0 184 -36 10 c-23 6 -45 6 -61 0 -32 -12 -30 -13 -35 16
-4 17 -1 25 9 25 7 0 16 7 19 15 4 10 14 13 29 9 13 -3 26 -1 29 5 4 6 2 11
-3 11 -6 0 -11 5 -11 10 0 17 18 11 39 -11 l20 -22 -2 49 c-2 34 -7 48 -16 46
-7 -1 -15 7 -18 18 -6 22 -29 27 -36 8 -4 -10 -7 -10 -18 0 -11 10 -10 12 4
12 20 0 24 36 5 43 -10 3 -10 8 1 21 8 9 17 34 20 54 8 46 36 52 37 7 1 -53 4
-65 14 -65 18 0 12 123 -7 150 -10 14 -16 33 -15 44 2 11 -1 16 -7 12 -6 -4
-11 -2 -11 3 0 6 -7 11 -15 11 -9 0 -18 7 -21 15 -4 8 -17 15 -31 15 -15 0
-22 4 -17 11 3 6 0 15 -7 20 -11 7 -10 9 4 9 9 0 17 -6 17 -12 0 -9 4 -8 10 2
9 13 12 13 21 -2 14 -25 39 -23 39 3 0 11 4 18 9 15 5 -3 14 0 20 8 14 17 -10
46 -38 46 -9 0 -22 5 -27 10 -13 13 -92 -13 -108 -35 -19 -25 -68 -29 -91 -7
-20 19 -21 18 -39 -37 -17 -52 -36 -81 -51 -81 -4 0 -4 11 -1 25 4 14 2 25 -4
25 -5 0 -10 -7 -10 -15 0 -7 -8 -19 -17 -24 -17 -10 -17 -10 0 -11 30 0 19
-19 -33 -52 -27 -18 -50 -40 -50 -48 0 -11 -3 -11 -12 -2 -9 9 -9 15 0 24 18
18 15 33 -3 18 -22 -18 -44 3 -26 24 7 8 11 19 8 23 -2 4 -1 17 4 28 7 19 8
19 8 -2 1 -14 7 -23 17 -23 8 0 12 5 9 10 -3 5 -1 10 4 10 6 0 11 -7 11 -15 0
-8 5 -15 10 -15 6 0 10 7 10 15 0 8 5 15 10 15 6 0 10 5 10 10 0 6 -9 10 -19
10 -11 0 -23 5 -26 10 -3 6 -17 10 -30 10 -14 0 -29 8 -35 19 -13 25 -13 31 1
31 18 0 55 34 93 83 53 70 105 163 106 191 0 11 9 30 21 42 14 15 19 32 17 55
l-3 34 -15 -32 c-18 -39 -21 -40 -39 -12 -10 17 -10 23 0 29 19 13 5 87 -22
109 -15 12 -20 24 -16 35 6 16 11 14 36 -13 16 -17 31 -38 35 -46 6 -16 26
-21 26 -6 0 5 -8 17 -17 26 -16 16 -16 18 0 27 19 10 23 43 7 53 -6 3 -14 -4
-19 -17 -6 -13 -10 -17 -10 -10 -1 6 -10 12 -21 12 -29 0 -25 16 8 29 24 10
29 20 44 99 11 55 15 112 12 157 -7 100 -12 116 -32 114 -29 -2 -58 2 -44 8 6
2 12 16 12 29 0 34 -30 124 -41 124 -15 0 -23 -30 -10 -43 17 -17 13 -29 -8
-18 -10 6 -21 7 -25 4 -3 -3 -6 1 -6 10 0 10 -4 17 -10 17 -15 0 -12 -16 5
-30 21 -17 19 -30 -4 -30 -11 0 -21 -5 -23 -12 -9 -25 -24 3 -20 36 3 28 10
38 29 42 19 5 22 9 11 16 -10 7 -10 11 -1 14 7 3 15 22 18 42 10 56 26 92 41
92 8 0 14 6 14 13 0 21 56 69 76 65 13 -2 19 3 18 15 -1 9 4 17 12 17 8 0 14
7 14 16 0 11 -6 14 -21 9 l-22 -7 22 31 22 30 -26 54 c-14 30 -25 61 -25 70 0
11 -8 17 -21 17 -15 0 -19 5 -15 15 3 10 -6 23 -29 38 -19 12 -35 28 -35 35 0
6 -6 12 -14 12 -7 0 -16 11 -18 25 -3 14 -1 25 3 25 5 0 9 8 9 18 0 9 12 28
26 41 13 13 24 31 22 40 -1 9 1 22 6 29 5 8 2 20 -8 31 -20 22 -20 37 0 45 13
5 13 10 -5 35 -25 35 -26 39 -5 37 14 -1 17 11 19 69 1 39 8 96 14 128 17 76
9 104 -34 124 -41 20 -45 45 -15 99 12 20 18 39 15 42 -11 11 -59 -26 -76 -57
-27 -50 -40 -61 -63 -55 -14 3 -28 -1 -35 -10 -12 -14 -9 -16 23 -16 30 0 36
-4 36 -21 0 -15 4 -19 16 -15 33 13 74 -71 44 -89 -5 -3 -10 -22 -10 -41 0
-19 -4 -33 -9 -30 -5 3 -7 15 -4 26 7 25 -22 28 -32 3 -6 -16 -8 -16 -18 -2
-26 34 -58 31 -109 -9 -14 -12 -17 -11 -23 7 -3 12 -10 19 -14 17 -3 -3 -15
25 -25 61 -15 50 -24 67 -43 74 -13 5 -28 20 -35 34 -6 14 -17 25 -25 25 -8 0
-20 15 -28 34 -12 29 -18 33 -42 28 -31 -6 -36 -14 40 77 20 25 37 53 37 63 0
10 7 21 15 24 10 4 15 20 15 50 0 43 13 86 36 114 22 28 85 151 82 160 -2 4
-16 -2 -32 -15 -24 -19 -27 -26 -18 -38 10 -12 9 -16 -2 -20 -8 -3 -17 -1 -19
6 -3 8 -10 5 -21 -8 -13 -17 -15 -18 -16 -3 0 9 5 20 10 23 15 10 12 35 -5 35
-8 0 -15 5 -15 11 0 5 4 8 9 5 5 -4 9 15 8 40 0 37 4 50 22 63 15 12 22 28 23
51 1 46 -22 122 -40 136 -10 7 -13 19 -9 36 4 16 2 30 -7 37 -10 9 -11 18 -2
46 6 19 16 35 22 35 15 0 24 23 24 60 0 20 6 31 19 35 31 10 60 67 55 111 -6
75 -13 99 -31 114 -10 8 -26 27 -36 43 -27 41 -49 36 -41 -10 5 -35 3 -40 -26
-55 -39 -22 -42 -16 -37 93 3 53 11 96 22 117 9 18 14 36 11 39 -3 4 -6 1 -6
-5 0 -6 -7 -9 -16 -5 -10 4 -17 -1 -21 -15 -6 -24 -73 -38 -73 -15 0 7 4 13 9
13 5 0 7 9 4 19 -3 10 0 28 6 39 6 12 7 37 3 63 -6 35 -12 45 -30 47 -22 3
-23 7 -26 77 -1 22 -6 30 -18 29 -11 -1 -18 5 -18 15 0 10 -11 28 -25 41 -29
27 -31 44 -10 84 19 36 19 90 0 110 -18 17 -21 51 -3 40 8 -5 9 2 5 23 -3 18
2 55 12 90 16 52 16 61 3 81 -18 27 -36 29 -27 2 7 -23 -13 -28 -21 -5 -4 9 3
23 15 34 22 19 29 61 10 61 -5 0 -8 -4 -5 -9 3 -5 -3 -20 -14 -32 l-20 -24 6
60 c4 33 8 79 11 103 3 23 0 48 -5 55 -8 9 -3 18 18 32 28 19 28 20 14 53 -21
50 -18 71 11 78 31 8 33 40 7 84 -16 25 -17 38 -9 82 5 29 16 67 23 85 8 17
14 38 14 46 0 9 5 19 10 22 6 3 10 23 10 44 0 20 5 42 12 49 9 9 8 22 -1 54
-26 88 -45 102 -112 84z m-64 -613 c-14 -20 -25 -40 -25 -44 0 -5 -4 -9 -10
-9 -18 0 -10 31 17 65 35 44 49 35 18 -12z m45 -363 c0 -5 -4 -10 -10 -10 -5
0 -10 5 -10 10 0 6 5 10 10 10 6 0 10 -4 10 -10z m-360 -180 c0 -5 7 -10 15
-10 8 0 15 -7 15 -15 0 -8 -4 -15 -10 -15 -5 0 -10 -9 -10 -21 0 -27 32 -22
45 9 5 12 13 22 17 22 11 0 10 -2 -7 -43 -8 -20 -15 -48 -15 -62 0 -17 -5 -25
-17 -25 -15 0 -16 2 -3 10 10 7 12 12 4 18 -6 4 -16 17 -23 30 -14 26 -28 28
-34 5 -7 -28 -8 41 -1 76 6 28 24 44 24 21z m31 -210 c5 0 9 -7 9 -15 0 -8 -6
-15 -14 -15 -18 0 -30 35 -19 52 5 10 8 8 11 -4 2 -10 8 -18 13 -18z m-11
-110 c0 -5 -7 -10 -15 -10 -8 0 -15 5 -15 10 0 6 7 10 15 10 8 0 15 -4 15 -10z
m541 -427 c-9 -16 -10 -14 -11 12 0 21 3 26 11 18 8 -8 8 -16 0 -30z m-846 -3
c3 -5 1 -10 -4 -10 -6 0 -11 5 -11 10 0 6 2 10 4 10 3 0 8 -4 11 -10z m910
-136 c0 -34 -8 -43 -20 -24 -5 8 -11 7 -21 -1 -11 -9 -14 -6 -14 17 0 22 3 25
12 16 19 -19 28 -14 28 15 0 14 3 23 8 19 4 -4 7 -23 7 -42z m-55 -106 c0 -6
-7 -5 -15 2 -8 7 -15 17 -15 22 0 6 7 5 15 -2 8 -7 15 -17 15 -22z m4 -54 c9
-23 8 -24 -10 -17 -13 5 -15 2 -9 -15 7 -25 -7 -29 -24 -8 -10 12 -9 19 6 34
22 25 29 26 37 6z m-24 -100 c0 -14 -3 -15 -17 -3 -10 7 -20 15 -22 16 -2 2 5
3 17 3 14 0 22 -6 22 -16z m-30 -30 c0 -8 -4 -14 -10 -14 -5 0 -10 -12 -10
-27 -1 -27 -1 -27 -15 -9 -10 13 -12 23 -5 30 5 5 10 18 10 28 0 11 5 15 15
12 8 -4 15 -12 15 -20z m-850 1 c0 -8 -4 -15 -10 -15 -5 0 -10 7 -10 15 0 8 5
15 10 15 6 0 10 -7 10 -15z m808 -91 c-10 -10 -28 6 -28 24 0 15 1 15 17 -1 9
-9 14 -19 11 -23z m195 2 c13 -20 14 -29 4 -50 -7 -14 -16 -26 -20 -26 -5 0
-6 -4 -3 -9 4 -5 -3 -7 -15 -4 -15 4 -19 11 -14 27 3 11 8 36 12 54 7 38 15
40 36 8z m-995 -59 c14 -16 20 -39 38 -149 7 -43 -7 -51 -23 -15 -6 14 -25 28
-44 33 -41 12 -48 38 -19 69 17 18 20 30 15 54 -7 32 5 68 13 41 3 -8 11 -23
20 -33z m742 3 c0 -5 -4 -10 -10 -10 -5 0 -10 5 -10 10 0 6 5 10 10 10 6 0 10
-4 10 -10z m-620 -40 c0 -5 -4 -10 -9 -10 -6 0 -13 5 -16 10 -3 6 1 10 9 10 9
0 16 -4 16 -10z m-424 -87 c-11 -11 -19 6 -11 24 8 17 8 17 12 0 3 -10 2 -21
-1 -24z m-14 -55 c-7 -7 -12 -8 -12 -2 0 14 12 26 19 19 2 -3 -1 -11 -7 -17z
m59 -90 c16 -30 0 -36 -22 -9 -10 13 -19 27 -19 32 0 14 30 -2 41 -23z m1219
22 c0 -5 -2 -10 -4 -10 -3 0 -8 5 -11 10 -3 6 -1 10 4 10 6 0 11 -4 11 -10z
m-1296 -28 c-1 -7 -2 -21 -2 -32 -1 -11 -6 -20 -12 -20 -12 0 -24 45 -15 60 8
14 30 8 29 -8z m167 -2 c23 -13 25 -48 4 -57 -20 -7 -23 -3 -31 35 -7 35 -3
38 27 22z m-216 -44 c0 -46 -11 -55 -20 -15 -5 22 -3 34 6 40 8 5 14 9 14 9 0
0 0 -15 0 -34z m100 13 c11 -17 -1 -21 -15 -4 -8 9 -8 15 -2 15 6 0 14 -5 17
-11z m-64 -97 l-5 -37 -7 45 c-7 47 0 77 11 46 3 -10 4 -34 1 -54z m59 -35 c0
-5 -4 -5 -10 -2 -5 3 -10 14 -10 23 0 15 2 15 10 2 5 -8 10 -19 10 -23z m-99
-334 c13 -16 12 -17 -3 -4 -10 7 -18 15 -18 17 0 8 8 3 21 -13z m59 -44 c0 -5
-7 -9 -15 -9 -9 0 -15 9 -15 21 0 18 2 19 15 9 8 -7 15 -16 15 -21z m-63 1
c-1 -11 -5 -20 -9 -20 -11 0 -20 19 -13 30 11 17 24 11 22 -10z m-10 -76 c-9
-9 -28 6 -21 18 4 6 10 6 17 -1 6 -6 8 -13 4 -17z m1728 -344 c3 -5 1 -10 -4
-10 -6 0 -11 5 -11 10 0 6 2 10 4 10 3 0 8 -4 11 -10z m-54 -67 c7 -19 7 -29
0 -31 -6 -2 -11 -13 -11 -25 0 -27 -46 -53 -54 -31 -3 8 1 14 9 14 10 0 15 10
15 28 0 37 10 72 21 72 5 0 14 -12 20 -27z m-657 -88 c3 -38 10 -104 15 -145
5 -41 8 -77 6 -79 -20 -19 -59 231 -47 295 7 40 18 10 26 -71z m-1067 20 c-4
-8 -11 -15 -17 -15 -14 0 -13 27 3 33 16 6 21 1 14 -18z m1583 -105 c0 -19
-18 -19 -23 -1 -3 14 -1 18 9 14 8 -3 14 -9 14 -13z m-106 -15 c11 -8 15 -15
10 -15 -6 0 -19 7 -30 15 -10 8 -14 14 -9 14 6 0 19 -6 29 -14z m96 -32 c0
-13 -3 -13 -15 -3 -8 7 -15 16 -15 21 0 5 7 6 15 3 8 -4 15 -13 15 -21z
m-1972 -200 c-5 -25 -28 -28 -28 -4 0 12 6 21 16 21 9 0 14 -7 12 -17z m1897
-412 c3 -5 0 -13 -6 -16 -6 -4 -8 -18 -5 -31 6 -23 5 -23 -14 -12 -23 15 -24
21 -8 48 14 22 24 25 33 11z m300 -1 c3 -5 1 -10 -4 -10 -6 0 -11 5 -11 10 0
6 2 10 4 10 3 0 8 -4 11 -10z m-2105 -120 c0 -5 -4 -10 -10 -10 -5 0 -10 5
-10 10 0 6 5 10 10 10 6 0 10 -4 10 -10z m777 -202 c-3 -8 -6 -5 -6 6 -1 11 2
17 5 13 3 -3 4 -12 1 -19z m191 -44 c-13 -14 -24 -21 -26 -15 -4 13 19 40 35
41 8 0 4 -11 -9 -26z m-5071 -34 c0 -16 -4 -30 -9 -30 -4 0 -8 14 -8 30 0 17
4 30 8 30 5 0 9 -13 9 -30z m-217 -65 c0 -7 -6 -15 -12 -18 -19 -6 -38 3 -38
18 0 7 6 15 13 18 18 6 37 -3 37 -18z m-150 -26 c0 -6 -4 -7 -10 -4 -5 3 -10
11 -10 16 0 6 5 7 10 4 6 -3 10 -11 10 -16z m441 -159 c19 -22 51 -59 72 -82
34 -39 47 -68 30 -68 -11 0 -53 43 -53 55 0 6 -13 19 -30 28 -16 10 -30 21
-30 25 0 4 -11 20 -26 35 -23 25 -25 47 -5 47 5 0 24 -18 42 -40z m6104 -18
c-7 -8 -35 7 -35 18 0 6 7 6 20 -2 10 -7 17 -14 15 -16z m-1107 -30 c2 -7 -3
-12 -12 -12 -9 0 -16 7 -16 16 0 17 22 14 28 -4z m-7150 -69 c15 -13 41 -31
59 -38 35 -15 58 -48 49 -72 -4 -9 -1 -22 5 -29 23 -28 -8 -13 -50 24 -61 52
-115 110 -123 134 -7 16 -5 18 12 13 12 -4 33 -18 48 -32z m4304 14 c30 -13
27 -23 -14 -50 -23 -14 -28 -25 -28 -57 0 -22 -4 -40 -8 -40 -16 0 -39 26 -52
58 -12 32 -11 35 21 68 36 37 41 39 81 21z m677 -78 c17 -49 14 -69 -9 -69
-26 0 -34 21 -26 65 8 43 21 45 35 4z m2284 1 c21 -25 21 -34 0 -51 -15 -13
-16 -11 -9 15 7 27 5 28 -19 22 -27 -7 -33 2 -13 22 16 16 21 15 41 -8z m-513
-20 c0 -5 -4 -10 -10 -10 -5 0 -10 5 -10 10 0 6 5 10 10 10 6 0 10 -4 10 -10z
m-7147 -15 c1 -5 -6 -11 -15 -13 -11 -2 -18 3 -18 13 0 17 30 18 33 0z m4454
-7 c-3 -8 -6 -5 -6 6 -1 11 2 17 5 13 3 -3 4 -12 1 -19z m-4407 -19 c0 -6 -4
-7 -10 -4 -5 3 -10 11 -10 16 0 6 5 7 10 4 6 -3 10 -11 10 -16z m4427 -21 c-3
-7 -5 -2 -5 12 0 14 2 19 5 13 2 -7 2 -19 0 -25z m1784 -67 c1 -14 1 -30 0
-35 -1 -5 3 -33 10 -64 10 -48 9 -56 -5 -64 -11 -6 -15 -16 -11 -29 8 -23 -17
-26 -35 -4 -14 17 -9 222 5 245 11 18 35 -15 36 -49z m1959 -2 c0 -5 -9 -4
-20 3 -11 7 -20 22 -20 33 1 19 2 19 20 -4 11 -13 20 -27 20 -32z m800 11 c0
-5 -4 -10 -10 -10 -5 0 -10 5 -10 10 0 6 5 10 10 10 6 0 10 -4 10 -10z m-202
-40 c3 -9 -1 -11 -11 -7 -10 4 -17 -1 -20 -14 -6 -21 -27 -27 -27 -7 0 16 32
49 44 45 5 -2 12 -9 14 -17z m-538 -15 c8 -10 8 -19 1 -34 -16 -28 -14 -33 10
-26 19 6 19 5 7 -15 -10 -18 -10 -24 -1 -27 8 -3 11 -14 7 -30 -4 -14 -3 -28
2 -32 6 -3 5 -20 -3 -41 l-12 -35 -2 40 c-2 22 -3 52 -2 68 1 15 -3 27 -8 27
-5 0 -9 9 -9 20 0 11 -6 20 -14 20 -14 0 -26 29 -26 67 0 16 5 20 20 16 10 -3
24 -11 30 -18z m620 15 c12 -7 10 -9 -8 -7 -12 0 -22 5 -22 9 0 11 12 10 30
-2z m-981 -40 c34 -34 44 -39 70 -34 l31 6 -12 -33 c-7 -21 -13 -28 -16 -19
-7 20 -22 30 -49 30 -14 0 -29 13 -43 35 -12 19 -26 35 -31 35 -5 0 -9 5 -9
10 0 20 20 9 59 -30z m-7258 -72 c19 -13 22 -19 12 -29 -20 -21 -15 -31 9 -18
16 9 23 9 26 0 2 -6 10 -11 19 -11 22 0 86 -67 71 -73 -10 -4 -9 -8 2 -16 11
-8 16 -7 18 4 3 12 11 10 36 -10 19 -14 46 -25 64 -25 18 0 32 -4 32 -10 0 -5
7 -10 15 -10 21 0 18 -10 -10 -44 -19 -24 -26 -27 -38 -17 -12 9 -18 9 -30 -4
-16 -15 -47 -11 -47 7 0 5 -13 1 -30 -9 -16 -9 -30 -20 -30 -24 0 -3 -13 -6
-29 -5 -16 1 -27 4 -24 9 2 4 0 7 -5 7 -20 0 1 46 31 68 l32 23 -35 -1 c-56
-3 -72 -1 -65 10 3 6 -1 10 -10 10 -9 0 -14 -4 -10 -9 3 -5 1 -12 -5 -16 -6
-4 -10 4 -10 19 0 13 -6 31 -14 38 -31 29 -55 46 -74 52 -12 4 -27 20 -34 36
-7 17 -16 30 -20 30 -15 0 -8 38 7 44 10 4 15 -1 15 -14 0 -11 5 -20 10 -20 6
0 10 7 10 15 0 8 5 15 11 15 8 0 8 4 1 13 -6 7 -8 23 -5 36 6 22 7 22 43 -16
20 -21 48 -45 61 -55z m647 1 c-2 -3 3 -13 11 -22 12 -15 11 -17 -3 -17 -9 0
-21 -11 -26 -24 -13 -36 -30 -42 -30 -11 0 32 28 87 41 83 6 -2 9 -6 7 -9z
m4252 -14 c0 -8 -4 -15 -10 -15 -5 0 -10 7 -10 15 0 8 5 15 10 15 6 0 10 -7
10 -15z m885 -44 c-12 -11 -24 16 -18 39 l7 25 7 -30 c5 -16 6 -31 4 -34z
m1668 29 c-3 -11 -13 -20 -22 -19 -10 0 -11 2 -3 6 6 2 12 14 12 24 0 11 4 18
9 15 5 -3 7 -15 4 -26z m267 10 c0 -5 -2 -10 -4 -10 -3 0 -8 5 -11 10 -3 6 -1
10 4 10 6 0 11 -4 11 -10z m-7905 -39 c17 -11 17 -12 2 -7 -10 3 -25 6 -33 6
-8 0 -14 10 -14 23 1 19 2 20 13 6 7 -8 21 -21 32 -28z m4135 29 c0 -5 -4 -10
-10 -10 -5 0 -10 5 -10 10 0 6 5 10 10 10 6 0 10 -4 10 -10z m1010 -10 c0 -20
-19 -23 -32 -5 -13 17 -9 25 12 25 13 0 20 -7 20 -20z m-1385 -3 c11 0 29 3
39 8 15 7 17 5 10 -6 -4 -8 -9 -18 -10 -24 0 -5 -2 -15 -2 -21 -1 -7 -14 -15
-29 -19 -29 -7 -43 -21 -43 -42 0 -7 7 -10 16 -6 12 4 15 1 12 -13 -2 -14 -10
-18 -28 -16 -14 2 -55 4 -92 4 -65 1 -86 9 -53 22 8 3 24 20 35 38 44 74 63
90 95 82 17 -4 39 -7 50 -7z m4779 4 c9 -14 -4 -41 -20 -41 -8 0 -14 8 -14 18
0 29 22 43 34 23z m-6907 -18 c3 -8 -7 -12 -31 -11 -19 1 -42 -4 -50 -11 -9
-7 -16 -8 -20 -2 -10 15 35 41 68 38 16 -1 31 -8 33 -14z m3533 -39 c0 -8 -4
-12 -10 -9 -5 3 -10 10 -10 16 0 5 5 9 10 9 6 0 10 -7 10 -16z m-5428 -57 c11
-3 17 -10 13 -16 -3 -6 -12 -8 -18 -4 -7 4 -20 6 -29 5 -10 -2 -18 1 -18 7 0
5 -9 13 -21 16 -23 8 -16 19 23 39 21 11 23 10 26 -15 2 -17 11 -29 24 -32z
m108 27 c0 -16 -18 -18 -39 -5 -12 8 -13 12 -2 25 11 12 17 14 27 5 8 -6 14
-18 14 -25z m5920 -2 c0 -21 -7 -47 -16 -58 -15 -18 -15 -18 -9 6 4 14 9 40
12 58 7 43 13 41 13 -6z m-6010 8 c0 -5 -5 -10 -11 -10 -5 0 -7 5 -4 10 3 6 8
10 11 10 2 0 4 -4 4 -10z m140 -7 c14 -6 33 -14 43 -17 28 -9 19 -29 -25 -59
-38 -27 -40 -27 -35 -8 3 12 1 19 -4 15 -5 -3 -9 1 -9 9 0 8 -3 29 -7 47 -3
18 -2 31 3 29 5 -3 20 -10 34 -16z m6070 -38 c-10 -12 -16 -13 -26 -4 -19 15
-18 27 4 32 25 5 37 -9 22 -28z m-6145 -31 c41 -42 55 -64 40 -64 -14 0 -65
32 -65 40 0 6 -7 10 -15 10 -10 0 -15 10 -15 30 0 17 2 30 5 30 2 0 25 -21 50
-46z m5355 6 c0 -16 -4 -30 -10 -30 -5 0 -10 14 -10 30 0 17 5 30 10 30 6 0
10 -13 10 -30z m3110 20 c0 -5 -4 -10 -10 -10 -5 0 -10 5 -10 10 0 6 5 10 10
10 6 0 10 -4 10 -10z m-3840 -60 c0 -54 -2 -60 -20 -60 -19 0 -19 -2 -5 -23
13 -21 13 -24 -4 -39 -26 -22 -41 -5 -41 48 0 42 20 72 40 59 6 -4 10 7 10 28
0 30 6 47 17 47 2 0 3 -27 3 -60z m804 15 c-4 -15 -3 -17 5 -6 8 12 17 9 49
-20 51 -43 54 -64 10 -55 -18 4 -51 10 -73 14 -39 7 -40 8 -38 47 4 60 9 68
33 53 13 -9 18 -19 14 -33z m-5214 22 c0 -7 -5 -18 -12 -25 -17 -17 -2 -27 17
-12 13 11 20 11 40 0 22 -12 27 -11 39 6 8 10 18 15 23 11 4 -5 0 -15 -10 -22
-29 -21 -18 -49 21 -53 49 -5 37 -32 -20 -46 -15 -3 -34 -13 -42 -22 -10 -10
-16 -11 -16 -3 0 8 -4 8 -12 1 -19 -15 -71 7 -118 51 -22 21 -40 43 -40 50 0
21 22 37 52 37 17 0 33 8 40 20 14 22 38 27 38 7z m871 -17 c16 0 9 -18 -9
-22 -15 -4 -17 0 -13 26 3 19 6 24 9 14 2 -10 8 -18 13 -18z m3859 15 c-7 -8
-9 -15 -4 -15 4 0 2 -6 -4 -12 -10 -10 -15 -10 -22 2 -5 8 -10 20 -10 25 0 6
4 4 9 -3 7 -11 9 -11 14 2 4 9 12 16 18 16 8 0 8 -4 -1 -15z m3030 -22 c0 -19
-3 -24 -10 -17 -6 6 -8 18 -4 27 9 24 14 21 14 -10z m-2270 3 c0 -3 -4 -8 -10
-11 -5 -3 -10 -1 -10 4 0 6 5 11 10 11 6 0 10 -2 10 -4z m2170 -6 c0 -5 10
-10 22 -10 24 0 58 -27 58 -45 0 -15 -28 -28 -41 -19 -5 3 -9 -1 -9 -8 0 -8
-6 -26 -12 -41 -12 -24 -35 -36 -120 -64 -22 -7 -25 22 -3 31 8 3 12 12 9 19
-3 10 5 16 26 20 34 7 51 34 29 47 -11 7 -11 13 0 33 7 14 10 30 7 36 -4 7 1
11 13 11 12 0 21 -4 21 -10z m-5873 -16 c4 -11 13 -14 30 -10 17 5 30 0 46
-16 14 -14 32 -22 46 -20 26 4 23 -6 -12 -45 -25 -28 -43 -29 -50 -4 -6 24
-48 25 -46 1 3 -37 -2 -50 -20 -50 -15 0 -18 5 -14 23 3 12 10 27 15 34 12 15
0 61 -20 72 -8 5 -12 13 -8 20 10 16 26 14 33 -5z m2843 6 c0 -5 -4 -10 -10
-10 -5 0 -10 5 -10 10 0 6 5 10 10 10 6 0 10 -4 10 -10z m1063 -32 c-2 -5 -11
-8 -20 -8 -10 0 -13 -6 -9 -16 3 -9 2 -12 -5 -8 -13 8 -2 56 14 66 12 7 28
-20 20 -34z m-5193 12 c0 -5 -9 -10 -20 -10 -11 0 -20 5 -20 10 0 6 9 10 20
10 11 0 20 -4 20 -10z m2064 -1 c13 -6 32 -27 43 -46 27 -51 91 -116 108 -109
10 3 15 -1 16 -12 1 -9 6 3 13 28 12 43 13 44 25 22 7 -12 9 -32 6 -42 -4 -13
-1 -22 9 -26 28 -11 59 -88 53 -133 -4 -35 -2 -41 13 -41 26 0 33 -15 15 -30
-12 -10 -15 -9 -15 4 0 13 -7 17 -27 14 -20 -2 -27 -8 -25 -21 4 -27 -44 -84
-71 -83 -25 1 -38 36 -13 36 9 0 16 -5 16 -12 0 -6 3 -8 6 -5 9 9 -16 38 -27
31 -5 -2 -11 7 -15 21 -3 14 -10 25 -14 25 -4 0 -11 12 -15 27 -10 40 -85 153
-102 153 -8 0 -11 5 -8 10 12 19 -6 70 -23 70 -13 0 -14 2 -4 9 10 6 11 20 4
59 -12 65 -9 69 32 51z m1211 1 c3 -5 1 -10 -4 -10 -6 0 -11 5 -11 10 0 6 2
10 4 10 3 0 8 -4 11 -10z m-2875 -10 c0 -5 -4 -10 -10 -10 -5 0 -10 5 -10 10
0 6 5 10 10 10 6 0 10 -4 10 -10z m1473 -99 c3 -14 0 -17 -14 -14 -22 6 -25
19 -6 26 6 3 13 6 13 6 1 1 4 -7 7 -18z m3433 -14 c20 -12 19 -97 -1 -97 -8 0
-15 4 -15 9 0 5 -8 11 -18 13 -15 4 -17 13 -14 43 5 41 24 72 31 52 2 -7 10
-16 17 -20z m-4886 -2 c0 -16 -6 -25 -15 -25 -15 0 -21 31 -8 43 13 14 23 6
23 -18z m510 5 c24 0 34 -29 13 -37 -9 -4 -19 -1 -21 5 -2 7 -10 18 -17 26 -8
7 -11 17 -7 20 4 4 8 2 10 -3 2 -6 12 -11 22 -11z m364 -52 c-15 -27 -27 -38
-35 -32 -13 8 9 44 27 44 9 0 12 -5 8 -12z m6361 0 c34 -15 32 -30 -7 -46 -18
-7 -40 -18 -48 -23 -49 -30 -90 -34 -90 -8 0 7 10 9 28 5 20 -5 23 -4 12 3
-13 9 -13 14 2 38 9 16 29 31 45 34 15 4 29 7 30 8 1 0 14 -4 28 -11z m185 3
c0 -5 16 -12 35 -15 35 -7 42 -19 26 -45 -7 -11 -15 -9 -43 13 -19 14 -42 26
-51 26 -20 0 -23 16 -4 23 20 9 37 8 37 -2z m-8330 -17 c0 -15 -36 -50 -48
-46 -19 6 -14 26 11 38 27 14 37 16 37 8z m187 -14 c-3 -13 1 -21 14 -25 24
-8 36 -52 20 -78 -10 -15 -10 -21 -1 -27 14 -8 9 -75 -5 -75 -5 0 -11 10 -13
22 -2 13 -13 29 -24 37 -23 16 -18 46 7 46 8 0 15 6 15 14 0 8 3 21 6 30 3 9
1 16 -5 16 -14 0 -51 36 -51 50 0 6 10 10 21 10 16 0 20 -5 16 -20z m48 -6
c-10 -7 -22 -11 -27 -8 -5 3 -1 12 9 19 10 7 22 11 27 8 5 -4 1 -12 -9 -19z
m1175 16 c0 -5 -5 -10 -11 -10 -5 0 -7 5 -4 10 3 6 8 10 11 10 2 0 4 -4 4 -10z
m-1240 -70 c0 -5 -5 -10 -11 -10 -5 0 -7 5 -4 10 3 6 8 10 11 10 2 0 4 -4 4
-10z m7146 -1 c10 -17 -13 -36 -27 -22 -12 12 -4 33 11 33 5 0 12 -5 16 -11z
m266 -26 c18 -17 25 -39 9 -28 -5 3 -12 1 -16 -5 -12 -19 -22 -10 -21 20 1 35
3 36 28 13z m-7441 -16 c-1 -4 -1 -14 -1 -22 0 -8 -4 -15 -10 -15 -5 0 -10 12
-10 26 0 14 5 24 11 22 6 -2 10 -7 10 -11z m7448 -71 c-3 -3 -11 5 -18 17 -13
21 -12 21 5 5 10 -10 16 -20 13 -22z m-4577 -28 c-7 -7 -12 -8 -12 -2 0 6 3
14 7 17 3 4 9 5 12 2 2 -3 -1 -11 -7 -17z m179 -76 c5 -12 8 -27 6 -32 -1 -5
6 -15 16 -22 20 -15 14 -48 -8 -48 -7 0 -24 -9 -38 -20 -14 -11 -32 -20 -41
-20 -8 0 -21 -12 -28 -27 -9 -19 -22 -28 -41 -30 -23 -2 -27 1 -22 17 3 11 0
30 -7 42 -14 27 -12 48 8 63 14 11 9 55 -7 55 -18 0 -8 17 17 28 14 7 23 16
19 21 -3 5 5 17 17 25 20 14 25 13 61 -7 22 -12 43 -32 48 -45z m-1617 18
c-14 -14 -36 4 -28 23 5 15 7 15 21 1 9 -9 12 -19 7 -24z m1426 -76 c-6 -14
-7 -30 -4 -36 4 -5 0 -21 -7 -35 -10 -19 -11 -28 -1 -44 7 -10 10 -19 8 -19
-2 0 -12 -3 -21 -6 -9 -4 -15 -3 -14 2 1 5 1 11 -1 14 -8 21 -8 50 0 55 6 3
10 21 10 39 0 30 15 56 32 56 4 0 3 -12 -2 -26z m4150 6 c0 -5 -4 -10 -9 -10
-6 0 -13 5 -16 10 -3 6 1 10 9 10 9 0 16 -4 16 -10z m-4520 -36 c0 -17 -12
-18 -28 -2 -18 18 -15 27 8 21 11 -3 20 -12 20 -19z m965 -84 c3 -5 2 -10 -4
-10 -5 0 -13 5 -16 10 -3 6 -2 10 4 10 5 0 13 -4 16 -10z m91 -26 c13 -9 27
-14 31 -10 11 11 33 -16 33 -41 0 -19 -4 -24 -16 -19 -9 3 -19 6 -24 6 -5 0
-12 9 -15 21 -5 14 -13 19 -25 16 -11 -3 -21 1 -24 10 -15 37 0 43 40 17z
m4214 -4 c0 -5 -5 -10 -11 -10 -5 0 -7 5 -4 10 3 6 8 10 11 10 2 0 4 -4 4 -10z
m-7993 -6 c-3 -3 -12 -4 -19 -1 -8 3 -5 6 6 6 11 1 17 -2 13 -5z m2471 -54
c-19 -30 -24 -25 -20 21 4 38 5 39 18 20 12 -17 12 -24 2 -41z m6089 40 c6
-24 22 -26 38 -3 14 19 35 9 35 -18 0 -19 -17 -24 -62 -20 -21 3 -21 1 -7 -36
l11 -28 13 24 13 25 7 -32 c3 -17 3 -42 -1 -54 l-7 -23 -9 24 -8 24 -24 -26
-24 -26 -6 31 c-3 17 -6 41 -6 54 0 15 -6 24 -15 24 -8 0 -15 -7 -15 -16 0
-14 -3 -14 -15 -4 -17 14 -20 40 -5 40 6 0 10 8 10 17 0 14 4 12 25 -7 31 -29
41 -21 27 19 -9 26 -8 31 4 31 9 0 18 -9 21 -20z m-5397 1 c0 -12 -20 -25 -27
-18 -7 7 6 27 18 27 5 0 9 -4 9 -9z m2737 -17 c-9 -9 -28 6 -21 18 4 6 10 6
17 -1 6 -6 8 -13 4 -17z m2539 -26 c9 -15 11 -68 3 -68 -11 0 -27 24 -34 53
-4 15 -13 27 -20 27 -14 0 -27 25 -18 34 6 6 58 -28 69 -46z m-5388 -4 c-3 -2
-20 -7 -39 -11 -31 -6 -33 -5 -20 10 7 9 22 17 32 17 11 0 20 8 20 18 1 10 3
8 6 -6 3 -13 3 -26 1 -28z m4832 36 c0 -5 -4 -10 -10 -10 -5 0 -10 5 -10 10 0
6 5 10 10 10 6 0 10 -4 10 -10z m-7838 -45 c9 -19 9 -28 0 -37 -10 -10 -17 -7
-34 9 -18 18 -19 24 -8 37 18 22 29 20 42 -9z m7758 15 c0 -5 -4 -10 -10 -10
-5 0 -10 5 -10 10 0 6 5 10 10 10 6 0 10 -4 10 -10z m-5300 -30 c0 -5 7 -10
15 -10 8 0 15 -9 15 -20 0 -11 -7 -20 -15 -20 -8 0 -15 7 -15 15 0 9 -6 12
-15 9 -17 -7 -18 -3 -9 20 7 18 24 22 24 6z m-510 -7 c-1 -24 -16 -29 -34 -12
-19 19 -19 19 7 19 15 0 27 -3 27 -7z m4649 -69 c17 -14 31 -30 31 -35 0 -12
-32 1 -47 18 -8 11 -13 11 -19 2 -4 -7 -1 -17 8 -23 8 -6 17 -19 21 -28 5 -15
4 -16 -13 -5 -11 6 -20 17 -20 24 0 21 -24 20 -42 -1 -17 -21 -17 -20 -18 18
0 36 2 38 25 32 18 -5 25 -2 25 9 0 22 14 19 49 -11z m-3741 -108 c-2 -59 -10
-76 -35 -76 -10 0 -10 7 -2 28 6 15 8 48 5 73 -7 50 0 65 21 48 9 -8 13 -31
11 -73z m5662 36 c0 -21 -2 -24 -10 -12 -13 20 -13 53 0 45 6 -3 10 -18 10
-33z m-3090 13 c0 -11 11 -15 39 -15 42 0 54 -13 39 -42 -13 -26 -28 -22 -28
7 0 29 -8 32 -24 9 -21 -28 -61 7 -49 44 6 17 23 15 23 -3z m1791 -61 c16 -24
27 -49 24 -54 -7 -12 -35 -13 -35 -2 0 4 -21 8 -47 9 -84 3 -93 5 -93 18 0 15
27 28 41 19 5 -3 9 -1 9 5 0 17 44 59 57 54 8 -3 27 -25 44 -49z m1235 -20
c-6 -6 -14 -10 -18 -7 -5 2 -8 -1 -8 -8 0 -7 -3 -10 -6 -6 -3 3 0 19 7 36 11
25 15 27 25 13 8 -11 8 -19 0 -28z m-3950 25 c3 -6 15 -9 25 -6 11 3 19 1 19
-4 0 -5 -11 -11 -24 -15 -19 -4 -24 -12 -23 -31 2 -33 -18 -41 -27 -11 -6 21
-7 22 -20 6 -7 -10 -18 -18 -24 -18 -14 0 -62 47 -62 61 0 14 42 1 56 -17 9
-11 15 -9 34 16 25 32 35 36 46 19z m4009 0 c11 -17 -1 -21 -15 -4 -8 9 -8 15
-2 15 6 0 14 -5 17 -11z m-1839 -38 c-10 -16 -23 -14 -30 5 -9 25 4 38 21 21
9 -8 12 -20 9 -26z m-3036 11 c0 -19 -18 -42 -32 -42 -12 0 -9 35 4 48 17 17
28 15 28 -6z m645 -12 c-3 -5 -10 -10 -16 -10 -5 0 -9 5 -9 10 0 6 7 10 16 10
8 0 12 -4 9 -10z m41 -37 c-11 -11 -19 6 -11 24 8 17 8 17 12 0 3 -10 2 -21
-1 -24z m244 6 c0 -24 -23 -21 -28 4 -2 10 3 17 12 17 10 0 16 -9 16 -21z
m3835 11 c-3 -5 -10 -10 -16 -10 -5 0 -9 5 -9 10 0 6 7 10 16 10 8 0 12 -4 9
-10z m-4935 -16 c0 -8 -5 -12 -10 -9 -6 4 -8 11 -5 16 9 14 15 11 15 -7z
m4986 -9 c-6 -25 8 -36 17 -12 2 6 7 10 10 7 10 -10 -7 -27 -34 -33 -34 -9
-47 18 -22 44 25 25 36 23 29 -6z m-1786 -10 c0 -8 -7 -15 -15 -15 -8 0 -15 7
-15 15 0 8 7 15 15 15 8 0 15 -7 15 -15z m1733 -32 c6 -54 6 -55 -10 -45 -18
11 -25 92 -9 92 9 0 15 -18 19 -47z m-3979 22 c-4 -8 -8 -15 -10 -15 -2 0 -4
7 -4 15 0 8 4 15 10 15 5 0 7 -7 4 -15z m2866 4 c13 -9 12 -10 -2 -5 -10 3
-20 1 -23 -4 -4 -6 -11 -10 -17 -10 -7 0 -6 6 2 15 15 18 20 18 40 4z m-400
-98 c0 -51 -22 -70 -40 -36 -7 14 -18 25 -24 25 -12 0 44 49 57 50 4 0 7 -17
7 -39z m-4050 -11 c0 -30 -21 -69 -42 -75 -17 -6 -22 -16 -19 -42 1 -7 -3 -13
-9 -13 -5 0 -10 5 -10 10 0 17 -29 11 -42 -9 -11 -18 -12 -18 -30 4 -24 31
-23 44 9 77 22 23 28 25 37 13 6 -7 20 -15 31 -17 17 -2 20 3 20 32 1 19 4 41
8 48 12 17 47 -3 47 -28z m3969 14 c2 -2 -4 -7 -13 -10 -11 -4 -24 0 -34 10
-16 16 -15 17 13 10 17 -4 32 -8 34 -10z m-2319 -14 c0 -5 -4 -10 -10 -10 -5
0 -10 5 -10 10 0 6 5 10 10 10 6 0 10 -4 10 -10z m2815 -90 c-16 -31 -57 -42
-71 -18 -5 8 0 9 16 5 16 -4 23 -1 27 13 3 10 12 21 22 23 9 3 17 5 19 6 1 0
-4 -12 -13 -29z m-1085 -15 c0 -8 -7 -15 -15 -15 -16 0 -20 12 -8 23 11 12 23
8 23 -8z m-5293 -17 c-3 -8 -6 -5 -6 6 -1 11 2 17 5 13 3 -3 4 -12 1 -19z
m-1007 -98 c0 -5 -4 -10 -10 -10 -5 0 -10 5 -10 10 0 6 5 10 10 10 6 0 10 -4
10 -10z m6880 -40 c0 -19 -20 -27 -33 -13 -8 7 11 33 24 33 5 0 9 -9 9 -20z
m69 -27 c1 -7 -3 -13 -9 -13 -5 0 -10 15 -9 33 0 27 2 29 9 12 5 -11 9 -26 9
-32z m-6699 26 c0 -5 -5 -7 -10 -4 -7 4 -8 -3 -4 -22 7 -25 6 -27 -9 -14 -10
7 -17 19 -17 26 0 8 -6 16 -12 18 -7 3 2 6 20 6 17 1 32 -4 32 -10z m6620 -59
c0 -5 -4 -10 -10 -10 -5 0 -10 5 -10 10 0 6 5 10 10 10 6 0 10 -4 10 -10z
m-4356 -55 c3 -8 1 -15 -4 -15 -6 0 -10 7 -10 15 0 8 2 15 4 15 2 0 6 -7 10
-15z m-56 -46 c-2 -6 -8 -10 -13 -10 -5 0 -11 4 -13 10 -2 6 4 11 13 11 9 0
15 -5 13 -11z m-851 -31 c-3 -7 -5 -2 -5 12 0 14 2 19 5 13 2 -7 2 -19 0 -25z
m-117 -4 c0 -2 -7 -4 -15 -4 -8 0 -15 4 -15 10 0 5 7 7 15 4 8 -4 15 -8 15
-10z m69 -41 c8 -15 12 -16 22 -5 17 16 29 15 29 -2 0 -19 -24 -27 -60 -19
-33 6 -32 5 -24 27 8 21 21 20 33 -1z m608 -15 c-3 -7 -5 -2 -5 12 0 14 2 19
5 13 2 -7 2 -19 0 -25z m773 12 c0 -5 -4 -10 -10 -10 -5 0 -10 5 -10 10 0 6 5
10 10 10 6 0 10 -4 10 -10z m-1275 -30 c3 -5 -1 -10 -9 -10 -8 0 -18 5 -21 10
-3 6 1 10 9 10 8 0 18 -4 21 -10z m536 -27 c0 -5 2 -16 4 -26 3 -18 3 -18 -16
-1 -10 9 -19 21 -19 26 0 10 30 11 31 1z"/>
<path d="M8760 8793 c0 -5 5 -15 10 -23 8 -12 10 -11 10 8 0 12 -4 22 -10 22
-5 0 -10 -3 -10 -7z"/>
<path d="M9367 4336 c-4 -10 -5 -21 -2 -24 9 -9 17 6 13 25 -3 17 -4 17 -11
-1z"/>
<path d="M1805 4171 c-6 -11 9 -23 19 -14 9 9 7 23 -3 23 -6 0 -12 -4 -16 -9z"/>
<path d="M1890 4005 c-7 -8 -8 -15 -2 -15 5 0 15 7 22 15 7 8 8 15 2 15 -5 0
-15 -7 -22 -15z"/>
<path d="M1275 4120 c-3 -5 -1 -10 4 -10 6 0 11 5 11 10 0 6 -2 10 -4 10 -3 0
-8 -4 -11 -10z"/>
<path d="M1570 3990 c0 -5 5 -10 10 -10 6 0 10 5 10 10 0 6 -4 10 -10 10 -5 0
-10 -4 -10 -10z"/>
<path d="M4395 3790 c4 -6 11 -8 16 -5 14 9 11 15 -7 15 -8 0 -12 -5 -9 -10z"/>
<path d="M8962 9898 c3 -7 13 -15 22 -16 12 -3 17 1 14 10 -3 7 -13 15 -22 16
-12 3 -17 -1 -14 -10z"/>
<path d="M810 9769 c0 -11 5 -17 10 -14 6 3 10 13 10 21 0 8 -4 14 -10 14 -5
0 -10 -9 -10 -21z"/>
<path d="M840 9738 c-12 -22 -12 -22 6 -6 10 10 15 20 12 24 -4 3 -12 -5 -18
-18z"/>
<path d="M916 9675 c4 -8 10 -12 15 -9 14 8 10 24 -6 24 -9 0 -12 -6 -9 -15z"/>
<path d="M9293 9675 c-3 -9 -3 -18 0 -21 9 -9 27 6 27 22 0 19 -19 18 -27 -1z"/>
<path d="M955 9650 c-3 -5 -1 -10 4 -10 6 0 11 5 11 10 0 6 -2 10 -4 10 -3 0
-8 -4 -11 -10z"/>
<path d="M9280 9525 c0 -8 5 -15 10 -15 6 0 10 7 10 15 0 8 -4 15 -10 15 -5 0
-10 -7 -10 -15z"/>
<path d="M8946 9434 c-9 -24 -7 -34 8 -34 7 0 16 11 18 25 6 28 -16 36 -26 9z"/>
<path d="M8990 9418 c0 -7 4 -19 9 -26 7 -11 10 -10 15 3 3 9 4 21 0 26 -8 13
-24 11 -24 -3z"/>
<path d="M9180 9290 c0 -5 5 -10 10 -10 6 0 10 5 10 10 0 6 -4 10 -10 10 -5 0
-10 -4 -10 -10z"/>
<path d="M9250 9160 c0 -5 5 -10 10 -10 6 0 10 5 10 10 0 6 -4 10 -10 10 -5 0
-10 -4 -10 -10z"/>
<path d="M2690 9030 c0 -5 5 -10 10 -10 6 0 10 5 10 10 0 6 -4 10 -10 10 -5 0
-10 -4 -10 -10z"/>
<path d="M8747 8983 c-11 -10 -8 -53 3 -53 6 0 10 14 10 30 0 31 -2 35 -13 23z"/>
<path d="M2720 8969 c0 -5 5 -7 10 -4 6 3 10 8 10 11 0 2 -4 4 -10 4 -5 0 -10
-5 -10 -11z"/>
<path d="M9256 8967 c3 -10 9 -15 12 -12 3 3 0 11 -7 18 -10 9 -11 8 -5 -6z"/>
<path d="M9227 8930 c8 -31 23 -34 23 -6 0 16 -6 26 -14 26 -9 0 -12 -7 -9
-20z"/>
<path d="M2801 8908 c-1 -15 4 -30 9 -33 12 -7 12 12 0 40 -8 18 -9 17 -9 -7z"/>
<path d="M2760 8873 c0 -5 5 -15 10 -23 9 -13 11 -13 20 0 15 22 12 30 -10 30
-11 0 -20 -3 -20 -7z"/>
<path d="M9374 8575 c-5 -20 -9 -23 -19 -15 -10 8 -15 4 -20 -20 -4 -16 -15
-35 -26 -40 -28 -16 -24 -47 7 -53 23 -4 25 -2 20 19 -4 16 -2 24 7 24 8 0 20
12 27 28 8 15 20 35 28 44 8 9 11 22 7 27 -11 18 -24 12 -31 -14z"/>
<path d="M9430 8442 c0 -16 -7 -35 -15 -42 -8 -7 -15 -19 -15 -26 0 -8 -7 -14
-16 -14 -9 0 -14 -7 -12 -17 2 -13 13 -18 36 -18 27 -1 33 4 43 33 6 18 9 42
6 53 -3 10 -1 19 4 19 16 0 9 19 -11 30 -18 10 -20 8 -20 -18z"/>
<path d="M9413 8123 c-15 -5 -17 -23 -4 -23 5 0 11 7 15 15 3 8 4 15 3 14 -1
0 -8 -3 -14 -6z"/>
<path d="M3241 7784 c0 -11 3 -14 6 -6 3 7 2 16 -1 19 -3 4 -6 -2 -5 -13z"/>
<path d="M2210 6891 c0 -5 5 -13 10 -16 6 -3 10 -2 10 4 0 5 -4 13 -10 16 -5
3 -10 2 -10 -4z"/>
<path d="M9382 6862 c-13 -9 -6 -42 9 -42 13 0 11 18 -3 23 -8 3 -6 6 5 6 9 1
17 6 17 11 0 12 -10 13 -28 2z"/>
<path d="M2705 6800 c-3 -5 -1 -10 4 -10 6 0 11 5 11 10 0 6 -2 10 -4 10 -3 0
-8 -4 -11 -10z"/>
<path d="M9565 6710 c-3 -5 -1 -10 4 -10 6 0 11 5 11 10 0 6 -2 10 -4 10 -3 0
-8 -4 -11 -10z"/>
<path d="M9910 6692 c0 -7 -9 -12 -20 -12 -22 0 -27 -15 -9 -26 6 -3 15 0 20
7 5 8 9 10 9 5 0 -6 5 -5 12 2 9 9 9 15 0 24 -9 9 -12 9 -12 0z"/>
<path d="M10080 6581 c0 -18 19 -51 30 -51 17 0 11 26 -10 45 -13 11 -20 14
-20 6z"/>
<path d="M10144 6429 c-3 -6 -2 -15 3 -20 5 -5 14 0 21 11 10 17 10 20 -2 20
-8 0 -18 -5 -22 -11z"/>
<path d="M9841 6376 c-13 -15 -7 -36 9 -36 12 0 19 25 11 39 -6 9 -11 8 -20
-3z"/>
<path d="M9920 6183 c0 -16 7 -37 15 -47 8 -11 15 -30 15 -43 0 -25 10 -29 28
-11 18 18 15 45 -8 68 -11 11 -20 29 -20 40 0 11 -7 20 -15 20 -10 0 -15 -10
-15 -27z"/>
<path d="M6820 5858 c-30 -9 -67 -20 -82 -23 -16 -3 -28 -11 -28 -18 0 -10 11
-12 43 -7 23 3 53 1 66 -4 18 -8 25 -8 29 2 2 6 8 12 14 12 6 0 16 8 23 17 11
15 15 16 31 3 12 -11 18 -12 21 -4 5 14 73 -4 73 -18 0 -5 4 -6 10 -3 6 4 4
17 -5 36 -15 28 -18 29 -78 27 -34 -2 -87 -11 -117 -20z"/>
<path d="M10120 5816 c0 -20 12 -26 38 -19 18 4 20 8 11 19 -15 18 -49 18 -49
0z"/>
<path d="M6876 5811 c-8 -12 23 -23 37 -14 7 4 25 6 42 5 25 -1 27 0 10 7 -26
12 -82 13 -89 2z"/>
<path d="M6410 5710 c-25 -16 -49 -29 -55 -30 -16 -2 -57 -59 -50 -70 9 -15
23 -12 29 8 3 9 38 34 77 55 38 21 68 44 66 50 -6 19 -21 16 -67 -13z"/>
<path d="M10140 5694 c0 -8 5 -12 10 -9 6 4 8 11 5 16 -9 14 -15 11 -15 -7z"/>
<path d="M6020 5540 c0 -5 6 -10 14 -10 8 0 18 5 21 10 3 6 -3 10 -14 10 -12
0 -21 -4 -21 -10z"/>
<path d="M5960 5410 c0 -5 5 -10 10 -10 6 0 10 5 10 10 0 6 -4 10 -10 10 -5 0
-10 -4 -10 -10z"/>
<path d="M5355 5299 c-4 -6 -5 -12 -2 -15 2 -3 7 2 10 11 7 17 1 20 -8 4z"/>
<path d="M5223 5260 c-36 -22 -44 -41 -14 -33 14 4 24 -3 36 -26 17 -34 34
-33 36 2 1 20 2 20 9 -3 5 -17 8 -19 9 -7 1 12 10 17 34 17 44 0 66 15 49 32
-10 10 -17 10 -32 0 -11 -7 -20 -8 -20 -3 0 9 -55 41 -69 41 -3 0 -21 -9 -38
-20z"/>
<path d="M5535 5240 c-4 -6 -11 -8 -16 -5 -11 7 -12 -5 -1 -21 9 -15 48 -10
85 9 l28 14 -32 7 c-44 8 -57 8 -64 -4z"/>
<path d="M5120 5186 c0 -30 -16 -42 -34 -26 -15 12 -53 8 -85 -10 -42 -22 -13
-45 38 -30 24 7 32 5 43 -11 10 -16 20 -18 45 -13 18 4 35 14 38 24 4 11 12
16 24 13 22 -6 38 37 18 49 -17 11 -27 10 -27 -2 0 -11 -33 -14 -43 -3 -4 3
-2 12 4 20 9 10 8 13 -5 13 -10 0 -16 -9 -16 -24z"/>
<path d="M6785 5140 c-3 -5 -1 -10 4 -10 6 0 11 5 11 10 0 6 -2 10 -4 10 -3 0
-8 -4 -11 -10z"/>
<path d="M6930 5116 c0 -9 7 -16 16 -16 9 0 14 5 12 12 -6 18 -28 21 -28 4z"/>
<path d="M7005 5110 c3 -5 11 -10 16 -10 6 0 7 5 4 10 -3 6 -11 10 -16 10 -6
0 -7 -4 -4 -10z"/>
<path d="M3550 5101 c0 -5 5 -13 10 -16 6 -3 10 -2 10 4 0 5 -4 13 -10 16 -5
3 -10 2 -10 -4z"/>
<path d="M4870 5095 c0 -16 30 -29 41 -18 4 4 -3 13 -17 20 -19 9 -24 8 -24
-2z"/>
<path d="M7045 5070 c-4 -6 -3 -16 3 -22 6 -6 12 -6 17 2 4 6 3 16 -3 22 -6 6
-12 6 -17 -2z"/>
<path d="M4871 5058 c-1 -10 -5 -18 -11 -18 -5 0 -10 -5 -10 -12 0 -8 6 -7 16
4 9 9 14 22 11 30 -4 9 -6 7 -6 -4z"/>
<path d="M3100 5034 c0 -8 43 -43 53 -44 4 0 0 11 -9 25 -14 22 -44 35 -44 19z"/>
<path d="M3046 5011 c-3 -4 6 -13 20 -19 23 -11 24 -10 14 8 -11 21 -25 26
-34 11z"/>
<path d="M4585 4996 c-82 -29 -87 -33 -75 -57 11 -20 30 -26 30 -8 0 15 26 39
34 32 3 -4 16 -1 29 6 13 7 30 11 37 9 9 -2 16 6 18 20 4 26 5 26 -73 -2z"/>
<path d="M9905 5000 c-3 -5 1 -10 9 -10 9 0 16 5 16 10 0 6 -4 10 -9 10 -6 0
-13 -4 -16 -10z"/>
<path d="M4810 4974 c0 -8 5 -12 10 -9 6 4 8 11 5 16 -9 14 -15 11 -15 -7z"/>
<path d="M9902 4959 c2 -6 8 -10 13 -10 5 0 11 4 13 10 2 6 -4 11 -13 11 -9 0
-15 -5 -13 -11z"/>
<path d="M4440 4944 c-19 -7 -42 -13 -51 -13 -26 -1 -113 -42 -122 -57 -4 -8
-21 -14 -37 -14 -17 0 -30 -4 -30 -9 0 -11 -55 -31 -85 -31 -21 0 -112 -87
-126 -120 -12 -29 54 -137 97 -160 35 -20 51 -1 34 39 -10 25 -10 34 0 46 9
11 10 25 2 55 -9 36 -8 40 10 40 10 0 16 -5 13 -10 -3 -6 -3 -19 0 -30 6 -18
8 -18 22 -5 11 12 12 19 4 29 -6 7 -7 17 -3 21 4 5 2 5 -5 1 -19 -10 -25 11
-8 28 8 8 15 19 14 23 -5 20 15 43 37 43 13 0 24 5 24 11 0 7 9 9 22 6 14 -4
29 0 41 10 13 12 38 17 90 18 124 3 127 3 127 24 0 12 -11 23 -27 29 -18 7
-22 11 -10 11 9 1 17 8 17 16 0 17 -3 17 -50 -1z"/>
<path d="M4720 4905 c0 -17 2 -18 24 -9 23 9 20 24 -4 24 -11 0 -20 -7 -20
-15z"/>
<path d="M9911 4894 c0 -11 3 -14 6 -6 3 7 2 16 -1 19 -3 4 -6 -2 -5 -13z"/>
<path d="M4530 4875 c0 -9 9 -15 25 -15 28 0 34 15 9 24 -25 10 -34 7 -34 -9z"/>
<path d="M2470 4779 c0 -11 5 -17 10 -14 6 3 10 13 10 21 0 8 -4 14 -10 14 -5
0 -10 -9 -10 -21z"/>
<path d="M1155 4771 c-3 -2 0 -12 6 -22 8 -16 14 -17 30 -9 11 7 38 8 64 4 56
-8 61 11 7 25 -35 10 -99 11 -107 2z"/>
<path d="M2166 4773 c-12 -12 -6 -33 9 -33 8 0 15 6 15 14 0 17 -14 28 -24 19z"/>
<path d="M4791 4754 c1 -21 16 -47 21 -38 4 5 0 18 -8 29 -8 10 -14 15 -13 9z"/>
<path d="M1316 4742 c-3 -6 -1 -14 5 -17 15 -10 25 3 12 16 -7 7 -13 7 -17 1z"/>
<path d="M2115 4710 c-3 -5 -1 -10 4 -10 6 0 11 5 11 10 0 6 -2 10 -4 10 -3 0
-8 -4 -11 -10z"/>
<path d="M2507 4700 c4 -16 8 -18 19 -9 16 13 10 29 -11 29 -8 0 -11 -7 -8
-20z"/>
<path d="M2435 4699 c-10 -15 1 -22 24 -14 12 3 19 11 16 16 -8 12 -32 11 -40
-2z"/>
<path d="M4757 4685 c-5 -11 0 -15 16 -15 12 0 18 4 12 8 -5 4 -13 11 -16 15
-4 4 -9 1 -12 -8z"/>
<path d="M900 4655 c0 -15 4 -24 10 -20 6 3 10 12 10 20 0 8 -4 17 -10 20 -6
4 -10 -5 -10 -20z"/>
<path d="M10116 4671 c-4 -7 -5 -15 -2 -18 9 -9 19 4 14 18 -4 11 -6 11 -12 0z"/>
<path d="M5553 4642 c-10 -6 -10 -12 2 -28 14 -18 14 -18 15 9 0 30 0 30 -17
19z"/>
<path d="M1050 4584 c0 -8 5 -12 10 -9 6 3 10 10 10 16 0 5 -4 9 -10 9 -5 0
-10 -7 -10 -16z"/>
<path d="M930 4530 c0 -5 5 -10 10 -10 6 0 10 5 10 10 0 6 -4 10 -10 10 -5 0
-10 -4 -10 -10z"/>
<path d="M10180 4506 c0 -8 5 -18 10 -21 6 -3 10 3 10 14 0 12 -4 21 -10 21
-5 0 -10 -6 -10 -14z"/>
<path d="M4272 4438 c-20 -20 -13 -57 18 -89 27 -29 32 -31 79 -24 47 6 93 37
78 52 -4 3 0 15 10 25 9 10 14 21 11 24 -3 3 -34 7 -68 9 -34 2 -74 6 -88 10
-16 3 -33 0 -40 -7z"/>
<path d="M9930 4410 c0 -5 11 -10 25 -10 14 0 25 5 25 10 0 6 -11 10 -25 10
-14 0 -25 -4 -25 -10z"/>
<path d="M10172 4048 c6 -18 28 -21 28 -4 0 9 -7 16 -16 16 -9 0 -14 -5 -12
-12z"/>
<path d="M4688 4017 c-14 -6 -29 -19 -32 -30 -4 -17 -1 -18 26 -13 17 3 37 6
44 6 8 0 14 10 14 25 0 27 -9 29 -52 12z"/>
<path d="M488 3798 c-64 -14 -61 -28 6 -28 56 0 94 21 60 34 -8 3 -16 5 -17 5
-1 -1 -23 -6 -49 -11z"/>
<path d="M990 3681 c0 -6 5 -13 10 -16 6 -3 10 1 10 9 0 9 -4 16 -10 16 -5 0
-10 -4 -10 -9z"/>
<path d="M1052 3618 c3 -7 13 -15 22 -16 12 -3 17 1 14 10 -3 7 -13 15 -22 16
-12 3 -17 -1 -14 -10z"/>
<path d="M1164 3539 c-3 -5 -2 -13 1 -19 9 -15 32 -12 38 4 6 16 -30 30 -39
15z"/>
<path d="M1378 3403 c7 -3 16 -2 19 1 4 3 -2 6 -13 5 -11 0 -14 -3 -6 -6z"/>
<path d="M1360 3285 c0 -16 4 -24 10 -20 6 4 17 1 25 -5 21 -18 47 -4 43 22
-2 19 -10 24 -40 26 -35 3 -38 1 -38 -23z"/>
<path d="M4657 3223 c-4 -3 -7 -11 -7 -17 0 -6 5 -5 12 2 6 6 9 14 7 17 -3 3
-9 2 -12 -2z"/>
<path d="M4693 3093 c-18 -2 -33 -10 -34 -16 -1 -18 -6 -40 -14 -59 -4 -11 -3
-18 4 -18 6 0 8 -7 5 -15 -11 -27 33 -17 71 16 38 34 48 82 19 93 -9 3 -16 5
-17 4 -1 0 -17 -3 -34 -5z"/>
<path d="M4863 3046 c-4 -7 -18 -18 -30 -25 -25 -13 -31 -41 -10 -41 18 0 67
48 67 65 0 19 -16 19 -27 1z"/>
<path d="M890 2911 c-25 -7 -60 -55 -48 -66 4 -4 24 -8 45 -9 21 -2 45 -3 53
-4 18 -2 54 -58 46 -71 -9 -15 23 -81 39 -81 8 0 15 5 15 10 0 15 77 12 83 -2
4 -10 7 -10 18 0 7 6 26 12 41 12 18 0 28 5 28 15 0 18 17 20 23 3 3 -10 8
-10 16 -2 9 9 5 18 -18 40 -17 16 -31 33 -31 37 0 9 -60 88 -75 99 -5 4 -21 7
-35 7 -14 0 -19 -3 -12 -6 26 -10 11 -25 -20 -20 -80 14 -98 20 -98 33 0 15
-28 17 -70 5z"/>
<path d="M4990 2878 c0 -10 4 -17 9 -14 5 3 26 -1 46 -10 41 -17 57 -10 49 21
-4 16 -14 20 -55 22 -43 1 -49 -2 -49 -19z"/>
<path d="M600 2869 c0 -5 5 -7 10 -4 6 3 10 8 10 11 0 2 -4 4 -10 4 -5 0 -10
-5 -10 -11z"/>
<path d="M6186 2806 c-41 -54 -29 -108 19 -90 8 4 15 1 15 -5 0 -7 -9 -15 -21
-19 -19 -8 -19 -9 7 -22 21 -12 28 -12 31 -2 3 6 17 12 32 12 15 0 35 6 45 13
18 13 18 17 4 58 -9 24 -21 43 -27 42 -6 -2 -11 4 -11 12 0 15 -30 35 -53 35
-8 0 -26 -15 -41 -34z"/>
<path d="M6440 2809 c0 -5 5 -7 10 -4 6 3 10 8 10 11 0 2 -4 4 -10 4 -5 0 -10
-5 -10 -11z"/>
<path d="M0 2800 c0 -5 5 -10 10 -10 6 0 10 5 10 10 0 6 -4 10 -10 10 -5 0
-10 -4 -10 -10z"/>
<path d="M5473 2793 c-20 -3 -33 -10 -33 -19 0 -8 4 -14 9 -14 19 0 71 23 71
31 0 5 -3 8 -7 7 -5 0 -23 -3 -40 -5z"/>
<path d="M495 2771 c-3 -6 -10 -9 -15 -6 -9 6 -23 -25 -15 -33 3 -3 15 4 27
16 12 12 19 24 16 27 -3 4 -9 1 -13 -4z"/>
<path d="M608 2766 c-24 -8 -28 -16 -28 -48 0 -21 4 -38 10 -38 10 0 44 -57
45 -75 0 -5 16 -11 35 -13 33 -3 34 -2 15 11 -19 15 -19 16 -1 36 11 12 25 21
33 21 7 0 13 5 13 10 0 6 9 10 20 10 15 0 20 7 20 28 0 41 -11 50 -66 55 -29
2 -55 6 -60 9 -5 3 -21 0 -36 -6z m22 -46 c0 -22 -4 -40 -10 -40 -5 0 -10 18
-10 40 0 22 5 40 10 40 6 0 10 -18 10 -40z m56 17 c4 -4 -5 -7 -19 -7 -15 0
-27 4 -27 10 0 11 35 8 46 -3z"/>
<path d="M785 2770 c-3 -5 -1 -10 4 -10 6 0 11 5 11 10 0 6 -2 10 -4 10 -3 0
-8 -4 -11 -10z"/>
<path d="M938 2763 c7 -3 16 -2 19 1 4 3 -2 6 -13 5 -11 0 -14 -3 -6 -6z"/>
<path d="M90 2756 c0 -9 30 -14 35 -6 4 6 -3 10 -14 10 -12 0 -21 -2 -21 -4z"/>
<path d="M5550 2680 c0 -5 5 -10 11 -10 5 0 7 5 4 10 -3 6 -8 10 -11 10 -2 0
-4 -4 -4 -10z"/>
<path d="M817 2665 c6 -18 34 -16 41 3 2 7 -6 12 -22 12 -19 0 -24 -4 -19 -15z"/>
<path d="M4556 2671 c-4 -7 -5 -15 -2 -18 9 -9 19 4 14 18 -4 11 -6 11 -12 0z"/>
<path d="M6421 2591 c-9 -12 -13 -13 -17 -3 -9 19 -34 14 -34 -7 0 -13 8 -21
23 -23 15 -2 21 -9 19 -20 -2 -10 2 -18 8 -18 5 0 10 8 10 17 0 14 2 15 13 4
10 -11 10 -14 0 -18 -15 -6 -18 -53 -3 -53 6 0 10 -5 10 -10 0 -18 43 -70 57
-70 16 0 53 58 53 83 0 10 -4 16 -9 13 -12 -8 -81 36 -77 49 2 6 11 9 20 9 30
-3 16 25 -23 44 -35 17 -39 17 -50 3z"/>
<path d="M9258 2593 c7 -3 16 -2 19 1 4 3 -2 6 -13 5 -11 0 -14 -3 -6 -6z"/>
<path d="M430 2580 c0 -5 5 -10 10 -10 6 0 10 5 10 10 0 6 -4 10 -10 10 -5 0
-10 -4 -10 -10z"/>
<path d="M9097 2546 c-4 -10 -5 -21 -2 -24 9 -9 17 6 13 25 -3 17 -4 17 -11
-1z"/>
<path d="M5642 2460 c0 -14 2 -19 5 -12 2 6 2 18 0 25 -3 6 -5 1 -5 -13z"/>
<path d="M8902 2460 c0 -14 2 -19 5 -12 2 6 2 18 0 25 -3 6 -5 1 -5 -13z"/>
<path d="M8783 2463 c-12 -2 -28 -15 -37 -28 -14 -21 -14 -24 0 -29 27 -10 46
-7 60 12 14 18 19 53 7 51 -5 -1 -18 -4 -30 -6z"/>
<path d="M8960 2444 c0 -8 5 -25 11 -36 9 -17 13 -18 20 -7 17 26 10 59 -11
59 -11 0 -20 -7 -20 -16z"/>
<path d="M9069 2435 c42 -19 51 -19 51 0 0 11 -11 15 -42 15 l-43 -1 34 -14z"/>
<path d="M200 2410 c0 -5 5 -10 10 -10 6 0 10 5 10 10 0 6 -4 10 -10 10 -5 0
-10 -4 -10 -10z"/>
<path d="M9022 2408 c5 -15 28 -18 29 -3 0 6 -7 12 -17 13 -10 3 -15 -1 -12
-10z"/>
<path d="M6526 2379 c-14 -14 -16 -19 -5 -19 18 1 77 28 62 29 -6 1 -17 3 -25
5 -7 3 -22 -4 -32 -15z"/>
<path d="M4026 2357 c-5 -15 -6 -31 -2 -34 11 -11 18 5 14 34 l-4 28 -8 -28z"/>
<path d="M1925 2340 c-3 -5 -1 -10 4 -10 6 0 11 5 11 10 0 6 -2 10 -4 10 -3 0
-8 -4 -11 -10z"/>
<path d="M898 2333 c7 -3 16 -2 19 1 4 3 -2 6 -13 5 -11 0 -14 -3 -6 -6z"/>
<path d="M1977 2284 c-9 -9 4 -35 14 -28 5 3 9 12 9 20 0 14 -12 19 -23 8z"/>
<path d="M4516 2271 c-4 -7 -5 -15 -2 -18 9 -9 19 4 14 18 -4 11 -6 11 -12 0z"/>
<path d="M4562 2258 c2 -13 10 -23 18 -23 8 0 16 10 18 23 3 17 -2 22 -18 22
-16 0 -21 -5 -18 -22z"/>
<path d="M3512 2250 c7 -11 16 -20 20 -20 5 0 8 9 8 20 0 13 -7 20 -20 20 -18
0 -19 -2 -8 -20z"/>
<path d="M3982 2248 c-7 -7 -12 -16 -12 -21 0 -5 7 -1 16 8 9 9 14 18 12 20
-2 3 -10 -1 -16 -7z"/>
<path d="M185 2230 c3 -5 8 -10 11 -10 2 0 4 5 4 10 0 6 -5 10 -11 10 -5 0 -7
-4 -4 -10z"/>
<path d="M3480 2208 c0 -31 17 -45 33 -29 8 8 5 17 -11 33 l-22 22 0 -26z"/>
<path d="M3890 2183 c0 -34 12 -63 27 -63 10 0 11 4 3 19 -5 11 -10 29 -10 40
0 12 -4 21 -10 21 -5 0 -10 -8 -10 -17z"/>
<path d="M3500 2075 c-13 -14 -20 -28 -16 -32 4 -5 16 2 27 15 10 13 23 21 29
17 5 -3 10 1 10 9 0 24 -23 19 -50 -9z"/>
<path d="M3308 2033 c7 -3 16 -2 19 1 4 3 -2 6 -13 5 -11 0 -14 -3 -6 -6z"/>
<path d="M210 2000 c0 -11 5 -20 10 -20 6 0 10 9 10 20 0 11 -4 20 -10 20 -5
0 -10 -9 -10 -20z"/>
<path d="M9527 1913 c-13 -12 -7 -33 8 -33 8 0 15 9 15 20 0 20 -11 26 -23 13z"/>
<path d="M97 1853 c-22 -29 -19 -37 6 -18 10 7 17 20 15 28 -2 11 -8 9 -21
-10z"/>
<path d="M6520 1839 c0 -11 5 -17 10 -14 6 3 10 13 10 21 0 8 -4 14 -10 14 -5
0 -10 -9 -10 -21z"/>
<path d="M3362 1825 c0 -16 2 -22 5 -12 2 9 2 23 0 30 -3 6 -5 -1 -5 -18z"/>
<path d="M9430 1830 c0 -24 8 -25 44 -7 30 16 24 27 -16 27 -21 0 -28 -5 -28
-20z"/>
<path d="M9038 1786 c-16 -19 -28 -39 -28 -43 0 -4 -7 -21 -15 -37 -9 -16 -13
-31 -10 -34 8 -8 -16 -32 -26 -26 -5 3 -1 -10 8 -29 l18 -35 13 24 c7 14 24
29 37 34 14 5 29 24 36 44 7 20 21 39 31 42 14 4 17 11 12 27 -7 23 -36 66
-44 67 -3 0 -17 -16 -32 -34z"/>
<path d="M30 1791 c0 -17 18 -21 24 -6 3 9 0 15 -9 15 -8 0 -15 -4 -15 -9z"/>
<path d="M9516 1784 c-3 -9 -6 -25 -6 -37 0 -20 5 -22 53 -21 29 0 58 4 65 8
20 12 26 -23 8 -43 -9 -10 -14 -25 -10 -35 3 -9 1 -16 -5 -16 -6 0 -14 18 -17
40 -6 39 -8 40 -45 40 -28 0 -39 -4 -39 -15 0 -8 -4 -15 -9 -15 -5 0 -11 7
-15 15 -9 25 -22 17 -42 -25 -22 -45 -29 -48 -44 -20 -12 23 -80 60 -110 60
-11 0 -20 5 -20 12 0 6 -3 8 -7 4 -4 -3 -12 6 -19 21 -11 26 -12 26 -13 6 -1
-31 -21 -29 -21 2 0 30 -11 32 -33 7 -22 -24 -22 -52 1 -53 9 0 -3 -10 -28
-21 l-45 -21 32 -13 c29 -13 31 -16 23 -46 -19 -77 -20 -115 -3 -129 13 -11
17 -11 20 -2 4 10 8 9 19 -1 18 -19 18 -30 -1 -22 -12 4 -15 -3 -15 -30 0 -45
-16 -74 -40 -74 -11 0 -32 -13 -47 -30 -14 -16 -34 -30 -42 -30 -9 0 -26 -7
-38 -15 -12 -9 -24 -11 -27 -6 -4 5 3 12 13 16 11 3 23 15 26 26 4 10 10 19
15 19 17 0 18 30 2 64 l-17 34 -41 -36 c-23 -20 -49 -52 -58 -70 -12 -23 -21
-31 -29 -24 -7 5 -27 12 -44 14 -28 4 -33 1 -33 -16 0 -12 -9 -27 -20 -34 -18
-11 -20 -10 -20 17 0 16 -8 37 -17 47 -13 13 -14 19 -5 22 15 5 16 38 1 48 -7
4 -16 -1 -21 -10 -5 -9 -15 -16 -23 -16 -7 0 -19 -16 -25 -36 -14 -42 -39 -74
-57 -74 -7 0 -13 -7 -13 -15 0 -8 -7 -15 -15 -15 -8 0 -15 -7 -15 -15 0 -9
-10 -19 -22 -24 -13 -5 -42 -27 -65 -49 -24 -23 -52 -40 -65 -40 -13 0 -40 -2
-60 -5 -26 -3 -38 -1 -42 9 -4 11 -11 12 -33 2 -15 -7 -35 -18 -44 -25 -19
-16 -51 -17 -65 -3 -10 10 -74 -14 -74 -28 0 -7 -116 -68 -182 -96 -32 -13
-38 -13 -48 0 -17 19 -27 18 -33 -6 -3 -12 -14 -20 -25 -20 -11 0 -23 -6 -25
-12 -4 -10 -8 -10 -15 1 -6 8 -17 11 -26 8 -11 -5 -16 -1 -16 13 0 26 -22 26
-45 0 -20 -22 -89 -44 -110 -36 -8 3 -15 0 -17 -6 -2 -5 -21 -16 -41 -23 -36
-12 -37 -12 -31 9 4 11 10 22 14 24 4 2 3 13 -3 26 -10 22 -13 22 -24 7 -11
-14 -13 -14 -19 6 -3 12 -13 24 -22 28 -19 7 -62 -32 -62 -57 0 -15 -5 -17
-25 -12 -14 3 -25 2 -25 -4 0 -5 -13 -26 -30 -47 -20 -26 -30 -32 -30 -21 0
15 -6 16 -32 11 -47 -10 -43 4 -51 -155 -1 -25 -6 -55 -10 -68 -5 -13 -4 -37
3 -57 12 -37 5 -78 -12 -73 -16 6 -39 81 -26 89 6 4 2 15 -12 29 -26 26 -41
18 -16 -9 17 -18 17 -19 0 -23 -13 -2 -18 -14 -20 -52 -1 -30 2 -43 7 -35 5 8
9 9 9 3 0 -6 -9 -19 -21 -30 -21 -19 -21 -19 -19 1 4 33 1 38 -15 25 -12 -10
-16 -9 -21 4 -11 30 -21 7 -21 -49 0 -32 4 -55 10 -55 6 0 1 -9 -12 -21 -18
-17 -25 -19 -38 -8 -13 11 -17 10 -29 -6 -8 -10 -14 -13 -14 -7 0 18 -18 14
-37 -8 -25 -29 -44 -25 -41 8 2 21 -2 28 -19 30 -22 3 -28 -3 -48 -63 -7 -18
-8 -17 -17 8 -10 27 -11 27 -29 11 -10 -9 -19 -23 -19 -29 0 -7 -7 -15 -15
-19 -8 -3 -20 -17 -25 -31 -11 -29 -28 -34 -26 -7 1 23 -51 30 -60 8 -3 -9
-11 -16 -18 -16 -6 0 -24 -7 -40 -15 -16 -9 -35 -14 -42 -11 -7 3 -20 -2 -31
-9 -10 -8 -25 -15 -34 -15 -9 0 -19 -7 -23 -15 -3 -8 -12 -12 -21 -9 -11 5
-14 2 -8 -11 5 -15 2 -17 -20 -13 -15 3 -27 1 -27 -3 0 -5 8 -9 18 -9 9 0 30
-7 45 -15 21 -11 34 -12 48 -5 10 6 19 7 19 3 0 -5 16 -17 35 -27 21 -11 35
-27 35 -38 0 -10 5 -18 11 -18 6 0 9 9 6 20 -3 12 5 35 20 57 23 34 24 38 8
49 -9 7 -14 18 -10 24 5 8 16 1 34 -21 21 -25 32 -30 49 -25 12 4 22 14 22 22
0 8 5 14 10 14 6 0 10 -9 10 -20 0 -11 11 -27 25 -36 27 -17 33 -40 13 -46 -9
-3 -8 -12 5 -31 15 -24 24 -27 73 -27 41 0 53 3 48 12 -6 10 -4 10 8 0 13 -10
17 -10 21 0 4 10 8 10 16 -2 10 -13 12 -13 21 0 9 13 12 13 20 -2 9 -15 24
-16 110 -13 90 3 103 6 131 29 31 26 82 35 94 16 3 -6 17 -10 30 -10 13 0 28
-8 33 -17 8 -13 26 -17 84 -18 42 -1 80 -5 86 -9 7 -4 20 -2 31 4 14 7 22 7
27 -1 4 -8 25 -9 63 -5 31 4 72 6 91 4 28 -2 1140 -2 1300 0 25 1 296 -1 603
-4 l557 -4 -1 257 -1 258 -19 -42 c-11 -24 -27 -47 -37 -52 -16 -8 -17 5 -17
194 l0 202 22 -16 c21 -16 35 -81 46 -216 2 -22 4 20 5 94 2 129 1 133 -18
128 -13 -3 -20 0 -20 8 0 8 -9 17 -20 20 -14 5 -20 15 -20 38 -1 79 -7 114
-23 145 -10 18 -15 37 -12 43 9 13 47 7 78 -14 14 -9 28 -17 31 -17 2 0 4 26
4 58 0 34 -3 48 -7 34 -6 -24 -6 -24 -29 7 -12 17 -22 36 -22 44 0 7 -5 18
-12 25 -9 9 -8 12 4 12 9 0 18 9 21 20 3 12 14 20 26 20 20 0 21 5 21 101 0
88 -2 100 -16 95 -10 -4 -26 5 -44 24 -32 34 -37 35 -76 15 -16 -8 -36 -15
-46 -15 -9 0 -18 -5 -20 -11 -2 -6 -14 -2 -29 10 -15 11 -30 16 -38 12 -7 -4
-22 -6 -35 -4 -16 3 -27 -3 -40 -21 -16 -25 -56 -36 -56 -16 0 21 -20 9 -26
-15 -4 -15 -13 -25 -24 -25 -10 0 -20 -7 -24 -15 -7 -20 -46 -20 -46 0 0 8 -3
14 -7 14 -26 -4 -33 4 -33 41 0 24 -5 40 -12 40 -9 0 -9 3 0 12 7 7 12 20 12
30 0 10 9 23 20 30 13 9 20 24 20 45 0 17 5 35 12 39 8 5 5 11 -7 20 -16 12
-17 17 -5 39 11 21 11 32 0 65 -13 38 -14 39 -31 24 -17 -15 -19 -15 -25 0 -9
22 -99 23 -108 0z m84 -14 c0 -5 -18 -10 -40 -10 -22 0 -40 5 -40 10 0 6 18
10 40 10 22 0 40 -4 40 -10z m-350 -380 c0 -5 -2 -10 -4 -10 -3 0 -8 5 -11 10
-3 6 -1 10 4 10 6 0 11 -4 11 -10z m330 -39 c13 -26 13 -31 -5 -31 -9 0 -15
-9 -15 -24 0 -35 -18 -42 -30 -11 -7 19 -6 34 5 56 18 34 30 37 45 10z m47 3
c-3 -3 -12 -4 -19 -1 -8 3 -5 6 6 6 11 1 17 -2 13 -5z m-644 -34 c-12 -10 -23
-16 -27 -13 -3 3 5 14 17 23 29 24 37 16 10 -10z m239 5 c0 -5 -5 -11 -11 -13
-6 -2 -11 4 -11 13 0 9 5 15 11 13 6 -2 11 -8 11 -13z m29 -32 c-12 -20 -14
-14 -5 12 4 9 9 14 11 11 3 -2 0 -13 -6 -23z m358 -67 c8 -9 8 -16 2 -20 -6
-4 -15 3 -21 14 -12 23 2 27 19 6z m311 -1 c0 -8 -2 -15 -4 -15 -2 0 -6 7 -10
15 -3 8 -1 15 4 15 6 0 10 -7 10 -15z m-1186 -22 c5 -11 1 -22 -10 -30 -34
-25 -45 -10 -22 27 16 25 24 25 32 3z m1244 -36 c7 -5 10 -13 6 -18 -6 -10
-64 27 -64 41 0 8 24 -2 58 -23z m-112 -55 c1 -19 -4 -32 -11 -32 -7 0 -12 16
-13 36 -1 24 3 34 11 31 6 -2 12 -18 13 -35z m-1091 -70 c0 -18 -20 -15 -23 4
-3 10 1 15 10 12 7 -3 13 -10 13 -16z m1132 -94 c-4 -45 5 -64 16 -35 6 13 10
-24 8 -58 -5 -62 -51 -132 -51 -77 0 18 -39 58 -52 55 -4 -2 -10 22 -13 52 -7
53 -6 55 31 94 48 51 68 42 61 -31z m-887 8 c0 -14 -7 -31 -15 -40 -8 -8 -15
-24 -15 -36 0 -12 -4 -18 -10 -15 -5 3 -10 15 -10 26 0 11 -7 22 -15 25 -14 6
-21 45 -10 55 2 3 20 6 40 7 31 2 35 0 35 -22z m-910 -26 c0 -5 -7 -10 -16
-10 -8 0 -12 5 -9 10 3 6 10 10 16 10 5 0 9 -4 9 -10z m1536 -40 c40 0 46 -21
12 -38 l-23 -11 23 0 c12 -1 22 -7 22 -14 0 -8 10 -13 22 -13 18 1 23 -7 30
-39 12 -57 6 -66 -37 -54 -20 6 -43 8 -51 5 -16 -6 -19 -46 -4 -46 6 0 10 -7
10 -15 0 -21 -27 -19 -39 3 -9 14 -10 13 -11 -10 0 -33 -24 -38 -40 -8 -6 11
-7 20 -3 19 26 -4 32 4 32 39 -1 20 2 50 6 66 6 21 4 31 -7 37 -36 20 -27 98
9 84 8 -3 30 -5 49 -5z m413 -57 c1 -13 -4 -23 -9 -23 -16 0 -23 27 -15 58 7
25 8 25 15 7 5 -11 9 -30 9 -42z m-2213 11 c-20 -49 -27 -45 77 -49 16 -1 41
-13 56 -27 22 -21 27 -33 23 -60 -4 -32 -46 -88 -65 -88 -13 0 -135 -77 -161
-101 -11 -11 -32 -19 -48 -19 -15 0 -28 -5 -28 -11 0 -7 -13 -25 -30 -41 -16
-15 -30 -24 -30 -19 0 5 -14 11 -31 13 l-31 3 27 30 27 30 -6 -27 c-4 -16 -3
-28 1 -28 16 1 53 39 53 53 0 9 8 17 18 19 13 3 8 10 -20 27 -21 13 -38 29
-38 37 0 8 -6 14 -12 14 -8 1 -6 6 5 14 10 8 15 20 12 29 -4 10 3 18 22 25 17
6 21 11 11 11 -12 1 -18 9 -18 26 0 22 3 24 30 19 26 -6 30 -4 30 15 0 15 -7
21 -22 22 -13 1 -16 3 -8 5 8 3 22 17 31 33 11 19 28 30 52 35 19 4 38 13 41
21 3 9 12 12 21 9 9 -4 14 -13 11 -20z m1037 -12 c-6 -26 -26 -24 -32 3 -2 13
1 16 13 12 9 -4 16 -1 16 5 0 6 2 9 5 7 2 -3 2 -15 -2 -27z m-41 -14 c2 -16
10 -23 26 -23 28 0 40 -18 34 -51 -5 -29 -40 -41 -71 -24 -18 9 -19 14 -10 31
12 23 3 41 -11 19 -7 -11 -11 -11 -24 -1 -14 12 -13 16 12 41 34 34 40 35 44
8z m-1562 -3 c0 -8 -4 -15 -10 -15 -5 0 -7 7 -4 15 4 8 8 15 10 15 2 0 4 -7 4
-15z m2740 -16 c0 -11 -4 -18 -10 -14 -5 3 -7 12 -3 20 7 21 13 19 13 -6z
m-2755 -29 c3 -5 1 -10 -4 -10 -6 0 -11 5 -11 10 0 6 2 10 4 10 3 0 8 -4 11
-10z m285 -44 c0 -22 -66 -91 -74 -77 -4 6 4 22 18 36 15 14 26 30 26 35 0 7
10 14 28 19 1 1 2 -5 2 -13z m-274 -23 c-10 -10 -19 5 -10 18 6 11 8 11 12 0
2 -7 1 -15 -2 -18z m1936 -70 c7 -9 7 -13 -1 -13 -6 0 -11 5 -11 10 0 6 -9 10
-20 10 -25 0 -27 35 -2 49 14 8 18 5 20 -17 2 -15 8 -33 14 -39z m-1951 35 c2
-27 -3 -63 -11 -68 -4 -3 -10 -14 -12 -25 -5 -19 -5 -19 -13 -1 -5 11 -3 21 5
26 7 4 9 13 5 19 -4 7 -1 18 5 26 6 8 9 19 5 25 -3 5 -1 10 4 10 6 0 11 -6 12
-12z m2283 -43 c39 -46 46 -58 36 -70 -7 -8 -20 -15 -30 -15 -21 0 -80 64 -80
86 0 14 17 54 23 54 2 0 25 -25 51 -55z m232 -60 c3 -8 3 -19 0 -24 -10 -16
-36 -1 -36 20 0 22 28 26 36 4z m-351 -21 c17 -12 18 -16 5 -24 -10 -6 -20 -4
-32 7 -35 31 -11 46 27 17z m-245 -44 c0 -5 -4 -10 -9 -10 -6 0 -13 5 -16 10
-3 6 1 10 9 10 9 0 16 -4 16 -10z m-662 -93 c1 -48 -1 -87 -5 -87 -11 1 -51
89 -58 128 -4 27 -2 34 17 42 13 5 28 7 33 6 6 -1 11 -42 13 -89z m745 38
c-19 -26 -34 -28 -41 -5 -3 9 1 11 11 7 9 -3 18 0 21 9 3 8 10 14 16 14 6 0 3
-11 -7 -25z m-980 -21 c-7 -18 59 -82 94 -90 14 -4 28 -17 33 -30 5 -12 18
-28 30 -34 11 -6 20 -18 20 -26 0 -12 -7 -14 -32 -9 -46 9 -98 37 -98 53 0 7
-4 10 -10 7 -5 -3 -10 2 -10 12 0 10 -9 32 -20 48 -20 30 -28 101 -10 90 5 -3
6 -13 3 -21z m1527 22 c0 -3 -4 -8 -10 -11 -5 -3 -10 -1 -10 4 0 6 5 11 10 11
6 0 10 -2 10 -4z m-1653 -28 c-3 -8 -6 -5 -6 6 -1 11 2 17 5 13 3 -3 4 -12 1
-19z m607 -17 c-6 -6 -24 19 -24 34 1 6 7 1 15 -9 8 -11 12 -22 9 -25z m516 9
c0 -5 -2 -10 -4 -10 -3 0 -8 5 -11 10 -3 6 -1 10 4 10 6 0 11 -4 11 -10z
m-905 -40 c3 -5 1 -10 -4 -10 -6 0 -11 5 -11 10 0 6 2 10 4 10 3 0 8 -4 11
-10z m-1215 -56 c0 -12 3 -29 6 -38 4 -11 1 -16 -10 -16 -9 0 -15 5 -13 11 1
6 -4 14 -11 16 -9 3 -12 -2 -10 -13 2 -13 -4 -20 -18 -22 -12 -2 -24 -12 -27
-24 -3 -11 -10 -17 -16 -14 -6 4 -20 2 -32 -5 -24 -12 -42 3 -32 28 3 7 0 13
-6 13 -6 0 -11 -8 -11 -17 -1 -24 -24 -53 -43 -53 -22 0 -47 11 -47 20 0 16
67 80 83 80 9 0 19 5 22 10 4 6 14 8 23 6 10 -3 30 5 47 18 40 32 95 32 95 0z
m660 -73 c6 -13 6 -22 1 -26 -9 -5 -31 24 -31 39 0 14 20 4 30 -13z m-1293
-73 c-3 -7 -5 -2 -5 12 0 14 2 19 5 13 2 -7 2 -19 0 -25z m943 17 c0 -7 -30
-13 -34 -7 -3 4 4 9 15 9 10 1 19 0 19 -2z m506 -60 c-2 -36 -6 -68 -9 -71 -9
-9 -37 52 -37 79 0 19 26 50 47 56 1 1 0 -28 -1 -64z m-1206 25 c0 -5 -2 -10
-4 -10 -3 0 -8 5 -11 10 -3 6 -1 10 4 10 6 0 11 -4 11 -10z m-316 -15 c-4 -8
-8 -15 -10 -15 -2 0 -4 7 -4 15 0 8 4 15 10 15 5 0 7 -7 4 -15z m2851 5 c3 -5
-2 -11 -12 -11 -17 -1 -17 -2 0 -6 20 -5 23 -23 3 -23 -16 0 -25 19 -18 38 5
15 18 16 27 2z m-1468 -16 c28 7 29 6 25 -36 -5 -52 -22 -71 -58 -62 -17 4
-22 9 -14 14 20 12 1 30 -31 30 -16 0 -29 5 -29 10 0 6 13 10 29 10 16 0 31 6
35 15 3 9 0 15 -10 15 -8 0 -12 5 -9 10 5 8 11 7 20 0 8 -7 27 -9 42 -6z
m-1044 -8 c18 -14 24 -46 8 -46 -5 0 -13 10 -17 23 -4 12 -12 25 -18 29 -6 4
-7 8 -1 8 6 -1 18 -7 28 -14z m1907 -36 c0 -5 -5 -10 -11 -10 -5 0 -7 5 -4 10
3 6 8 10 11 10 2 0 4 -4 4 -10z m651 0 c5 0 9 -5 9 -11 0 -15 -43 -7 -48 10
-3 10 0 12 12 8 10 -4 22 -7 27 -7z m-2551 -30 c0 -5 -5 -10 -11 -10 -5 0 -7
5 -4 10 3 6 8 10 11 10 2 0 4 -4 4 -10z m893 -7 c-7 -2 -19 -2 -25 0 -7 3 -2
5 12 5 14 0 19 -2 13 -5z m1554 -9 c-3 -3 -12 -4 -19 -1 -8 3 -5 6 6 6 11 1
17 -2 13 -5z"/>
<path d="M9851 943 c-1 -6 -4 -20 -7 -30 -5 -17 -5 -17 6 0 6 10 9 23 6 30 -3
9 -5 9 -5 0z"/>
<path d="M9885 850 c-3 -5 -1 -10 4 -10 6 0 11 5 11 10 0 6 -2 10 -4 10 -3 0
-8 -4 -11 -10z"/>
<path d="M7810 80 c0 -5 7 -10 16 -10 8 0 12 5 9 10 -3 6 -10 10 -16 10 -5 0
-9 -4 -9 -10z"/>
<path d="M5697 1776 c-4 -10 -5 -21 -2 -24 9 -9 17 6 13 25 -3 17 -4 17 -11
-1z"/>
<path d="M9406 1772 c-4 -13 -5 -26 -2 -29 10 -11 18 4 14 29 l-4 23 -8 -23z"/>
<path d="M5540 1711 c0 -35 -7 -41 -56 -45 -19 -1 -39 -7 -42 -13 -15 -22
-102 -46 -145 -40 -33 5 -50 1 -72 -13 -19 -13 -47 -20 -76 -20 -67 0 -114
-11 -97 -22 10 -7 9 -11 -6 -21 -37 -23 -66 -60 -66 -84 0 -14 -7 -32 -16 -40
-9 -10 -14 -27 -12 -43 3 -21 0 -26 -16 -26 -10 1 -21 -5 -23 -11 -3 -9 6 -13
24 -13 27 0 29 -2 25 -31 -3 -24 1 -36 15 -48 11 -9 23 -30 26 -47 5 -26 2
-33 -19 -42 -13 -7 -24 -18 -24 -26 0 -16 -21 -26 -56 -26 -13 0 -24 -4 -24
-9 0 -5 -7 -11 -14 -14 -10 -4 -13 -1 -10 8 3 8 1 22 -5 32 -9 17 -10 16 -19
-7 -5 -14 -6 -26 -1 -28 18 -7 8 -22 -14 -22 -27 0 -51 -23 -62 -58 -11 -37
-55 -72 -82 -66 -14 4 -23 2 -23 -5 0 -6 -11 -11 -25 -11 -14 0 -34 -9 -45
-20 -11 -11 -24 -20 -29 -20 -14 0 -1 38 15 44 8 3 14 15 14 26 0 24 -31 27
-50 5 -7 -8 -18 -15 -25 -15 -18 0 -24 68 -8 88 7 9 13 27 13 38 0 18 -5 20
-27 16 l-26 -5 19 26 c12 17 25 24 37 21 9 -3 17 0 17 6 0 7 -9 14 -21 17 -16
5 -18 8 -7 15 10 7 9 11 -6 23 -13 10 -40 13 -98 10 -72 -3 -84 -7 -111 -32
-25 -24 -28 -25 -23 -8 4 16 -1 25 -23 38 -29 17 -47 59 -35 79 5 7 2 8 -6 3
-17 -10 -32 16 -18 32 8 10 6 13 -10 13 -11 0 -25 -7 -32 -15 -7 -8 -19 -15
-26 -15 -10 0 -12 -9 -8 -32 5 -30 4 -31 -9 -15 -18 21 -37 22 -37 1 0 -28
-34 -119 -50 -130 -12 -10 -12 -15 -1 -27 7 -9 10 -21 6 -26 -3 -6 1 -23 9
-38 13 -26 12 -30 -12 -58 l-25 -30 7 37 c7 40 -6 57 -30 37 -12 -10 -13 -9
-9 3 6 16 -42 55 -53 43 -4 -3 0 -10 8 -15 13 -8 12 -11 -4 -23 -24 -18 -69
-10 -61 11 3 8 0 21 -6 28 -6 8 -9 27 -6 43 4 20 1 33 -12 45 -27 24 -44 20
-39 -9 3 -14 1 -25 -3 -25 -5 0 -9 4 -9 9 0 12 -62 -8 -71 -22 -11 -15 -93
-27 -101 -14 -4 6 -2 14 4 18 18 11 0 59 -22 59 -20 0 -24 -19 -23 -103 0 -11
-5 -16 -14 -12 -8 3 -17 5 -19 5 -2 0 -4 12 -4 26 0 22 -2 25 -15 14 -20 -17
-19 -57 3 -69 16 -9 15 -12 -5 -33 -22 -21 -24 -21 -40 -5 -16 16 -16 17 5 17
13 0 20 4 17 10 -4 6 -28 7 -62 4 -30 -4 -58 -3 -61 2 -4 5 -27 16 -52 24 -41
14 -45 18 -45 48 0 22 -6 37 -18 43 -12 7 -16 18 -13 32 3 12 3 16 0 10 -3 -7
-14 -13 -24 -13 -14 0 -19 -9 -22 -40 -2 -22 1 -41 7 -43 6 -2 2 -13 -8 -24
-10 -11 -17 -33 -15 -49 3 -54 -2 -94 -12 -92 -6 2 -13 -20 -15 -50 -2 -30
-13 -80 -24 -113 -12 -32 -21 -66 -21 -74 0 -8 -4 -15 -8 -15 -5 0 -26 -33
-47 -72 -60 -114 -83 -148 -104 -148 -11 0 -22 -9 -26 -19 -5 -16 -31 -30 -57
-31 -15 0 -8 41 7 46 19 8 21 85 3 80 -7 -1 -10 -1 -5 1 4 3 7 19 7 36 0 18 8
50 18 71 14 31 23 40 45 40 15 1 27 -2 27 -7 0 -5 7 -4 15 3 18 15 7 72 -22
119 -1 1 -14 -9 -30 -23 -15 -14 -31 -26 -35 -26 -13 0 -9 -28 5 -34 10 -5 10
-7 0 -12 -7 -3 -13 -12 -13 -20 0 -12 -4 -12 -20 -4 -34 18 -101 -41 -68 -61
6 -4 20 -3 31 3 10 5 21 7 25 4 3 -3 0 -6 -7 -6 -8 0 -11 -7 -7 -15 3 -8 0
-15 -7 -15 -7 0 -23 -9 -37 -20 -14 -11 -28 -20 -32 -20 -13 0 -9 28 5 33 6 2
8 8 4 13 -4 5 -12 2 -16 -5 -5 -7 -15 -11 -22 -9 -9 3 -25 -12 -42 -38 -43
-69 -79 -52 -69 32 3 27 0 50 -8 59 -17 21 -23 19 -43 -15 -16 -26 -21 -28
-43 -20 -39 15 -42 13 -47 -27 l-4 -38 -1 43 c-2 30 -6 42 -17 42 -11 0 -15
12 -15 44 0 29 -6 51 -17 62 -17 16 -18 16 -24 -7 -5 -18 -7 -14 -8 19 -1 32
3 42 15 42 14 0 15 2 3 17 -11 12 -11 17 -2 20 37 13 53 40 59 98 4 50 2 64
-15 85 -11 14 -21 19 -21 13 0 -7 -7 -13 -15 -13 -8 0 -15 -4 -15 -10 0 -5 -6
-10 -13 -10 -7 0 -21 -16 -31 -35 -11 -19 -23 -35 -28 -35 -4 0 -8 -11 -8 -25
0 -23 -4 -25 -42 -25 -37 0 -49 6 -83 40 -60 59 -95 52 -95 -20 0 -16 -4 -32
-10 -35 -5 -3 -10 -16 -10 -28 0 -22 1 -22 19 3 l20 25 25 -28 c20 -21 26 -39
26 -73 0 -32 -4 -44 -15 -44 -17 0 -20 -21 -5 -36 14 -14 2 -44 -18 -44 -26 0
0 -19 36 -26 24 -5 33 -3 38 10 8 20 34 21 34 1 0 -25 -38 -92 -56 -99 -26
-10 -114 5 -114 19 0 18 -54 38 -80 30 -12 -4 -26 -18 -31 -33 l-10 -26 -24
29 c-25 30 -29 60 -9 60 6 0 18 8 28 17 10 10 13 18 7 18 -6 0 -11 7 -11 15 0
8 -4 15 -10 15 -5 0 -10 7 -10 15 0 8 -7 15 -15 15 -8 0 -15 5 -15 10 0 6 -7
10 -15 10 -14 0 -14 -3 0 -30 29 -57 10 -66 -55 -25 -22 14 -46 25 -55 25 -8
0 -21 13 -30 30 -20 38 -31 38 -39 -1 -5 -26 -1 -35 21 -53 48 -37 63 -55 63
-77 0 -11 5 -29 11 -40 8 -16 13 -18 24 -9 18 15 35 5 35 -21 0 -20 19 -59 34
-70 4 -4 17 -4 27 -2 16 5 18 0 14 -30 -3 -23 0 -39 10 -47 17 -14 20 -30 5
-30 -6 0 -14 8 -18 18 -4 11 -19 18 -41 19 -18 1 -37 7 -41 13 -5 8 -10 8 -14
2 -3 -5 5 -17 19 -26 14 -9 25 -25 25 -36 0 -16 -4 -18 -23 -11 -12 5 -21 14
-20 20 5 20 -19 12 -24 -8 -4 -16 -9 -18 -29 -11 -14 6 -26 6 -29 0 -9 -14 18
-50 37 -50 10 0 18 -5 18 -10 0 -6 9 -21 21 -33 19 -21 21 -21 33 -5 16 22 36
23 36 3 0 -8 7 -15 15 -15 8 0 15 -8 15 -17 1 -26 78 -79 93 -64 9 10 6 17
-15 33 -16 11 -28 27 -28 37 0 9 -5 22 -12 29 -8 8 -9 12 -1 12 25 0 43 -13
43 -32 0 -17 5 -19 30 -13 25 6 31 3 39 -17 5 -13 7 -26 4 -30 -2 -5 3 -8 11
-8 9 0 16 -6 16 -14 0 -15 53 -32 69 -22 5 4 14 -2 20 -11 9 -15 12 -16 20 -3
6 9 6 19 0 26 -11 13 -2 44 13 44 12 0 64 -35 100 -68 24 -22 33 -24 79 -19
31 4 58 2 65 -4 8 -7 24 -5 49 5 21 9 41 14 45 11 5 -3 12 0 15 5 5 8 13 6 25
-5 15 -14 24 -15 61 -5 36 10 44 9 51 -4 10 -18 73 -22 97 -7 9 6 21 5 32 -2
13 -8 21 -7 34 6 9 9 25 17 36 17 11 0 29 5 40 10 15 9 21 7 25 -5 4 -9 19
-15 43 -15 20 0 56 -6 81 -12 72 -18 199 -10 233 14 l30 21 17 -23 c11 -15 19
-19 24 -11 4 6 4 16 1 22 -10 15 25 49 50 49 13 0 30 10 38 24 27 41 48 56 77
56 28 0 40 15 40 51 0 21 16 26 23 7 3 -10 9 -9 23 4 14 12 24 14 36 7 24 -13
88 -1 88 17 0 8 7 14 15 14 17 0 20 -16 5 -25 -13 -8 -13 -55 -1 -55 5 0 17
-3 25 -6 11 -4 15 -2 11 7 -4 10 5 15 27 16 50 2 88 20 88 41 0 23 40 58 62
54 11 -2 20 8 28 33 19 56 57 96 86 89 20 -5 24 -2 24 15 0 12 5 21 10 21 6 0
10 -7 8 -16 -2 -9 9 -25 23 -36 33 -25 64 -17 84 23 17 32 32 37 42 13 5 -13
10 -11 32 9 14 14 36 28 49 32 12 3 22 13 22 21 0 7 18 27 40 43 21 15 36 31
33 35 -3 3 12 6 34 6 32 0 42 4 46 20 3 11 10 20 16 20 9 0 9 -5 0 -21 -19
-37 5 -44 34 -9 21 25 31 29 52 24 16 -4 32 -1 43 8 9 8 36 20 60 28 23 7 58
29 77 47 19 19 39 32 44 29 5 -3 24 10 42 29 19 19 39 35 44 35 6 0 26 22 45
48 19 26 41 51 47 55 7 4 13 13 13 20 0 7 9 18 20 25 11 7 20 17 20 23 0 6 12
26 26 44 14 19 24 42 23 52 -3 26 11 53 27 53 8 0 14 9 14 20 0 11 9 37 20 57
17 32 20 34 20 15 0 -13 -5 -32 -11 -43 -8 -16 -6 -27 9 -50 l19 -30 13 58 c7
32 22 73 32 90 11 18 21 57 23 85 1 29 4 55 5 58 1 3 2 8 1 12 0 4 6 5 13 2
10 -4 16 3 18 18 3 21 9 23 67 28 58 4 63 7 50 20 -14 13 -13 19 3 55 10 24
18 32 18 21 0 -33 15 -5 19 37 2 14 21 7 21 -8 0 -8 9 -15 20 -15 11 0 20 7
20 15 0 8 -9 19 -20 25 -11 6 -20 17 -20 25 0 8 9 15 20 15 14 0 20 -7 20 -22
0 -18 2 -20 9 -9 5 8 22 16 38 19 37 5 43 12 9 12 -39 0 -82 34 -89 70 -8 39
-27 39 -27 1z m-532 -331 c7 -11 10 -20 7 -20 -3 0 -15 9 -27 20 -16 14 -18
20 -7 20 8 0 20 -9 27 -20z m-658 -235 c0 -9 -6 -12 -15 -9 -8 4 -12 10 -9 15
8 14 24 10 24 -6z m-118 -47 c-23 -23 -36 -21 -26 5 5 15 33 28 43 20 3 -2 -5
-13 -17 -25z m-505 -24 c-3 -3 -12 -4 -19 -1 -8 3 -5 6 6 6 11 1 17 -2 13 -5z
m3 -24 c0 -5 -7 -10 -16 -10 -8 0 -12 5 -9 10 3 6 10 10 16 10 5 0 9 -4 9 -10z
m-290 -66 c0 -11 -6 -14 -22 -9 -39 12 -44 25 -10 25 22 0 32 -5 32 -16z m551
-101 c2 -13 2 -57 0 -75 -2 -26 -16 -22 -29 7 -8 17 -8 33 -2 50 9 23 29 35
31 18z m-247 -34 c25 -12 26 -39 0 -39 -7 0 -18 -9 -24 -20 -6 -11 -17 -20
-25 -20 -20 0 -19 16 1 24 8 3 12 10 9 16 -6 10 2 50 10 50 2 0 15 -5 29 -11z
m-1574 -13 c0 -11 -19 -15 -25 -6 -3 5 1 10 9 10 9 0 16 -2 16 -4z m1491 -119
c-17 -17 -24 -1 -10 25 12 21 14 21 17 4 2 -10 -1 -23 -7 -29z m-1345 -35
c-12 -11 -18 7 -10 30 l8 23 4 -23 c2 -13 1 -26 -2 -30z m2101 -34 c-3 -7 -5
-2 -5 12 0 14 2 19 5 13 2 -7 2 -19 0 -25z m-2057 -87 c0 -29 -4 -40 -19 -44
-30 -8 -43 7 -35 39 9 40 12 44 35 44 15 0 19 -7 19 -39z m-320 -51 c0 -5 -4
-10 -9 -10 -6 0 -13 5 -16 10 -3 6 1 10 9 10 9 0 16 -4 16 -10z m400 0 c0 -5
-2 -10 -4 -10 -3 0 -8 5 -11 10 -3 6 -1 10 4 10 6 0 11 -4 11 -10z m290 -9 c0
-17 -12 -41 -21 -41 -10 0 -12 33 -2 43 9 10 23 9 23 -2z m-685 -31 c3 -5 1
-10 -4 -10 -6 0 -11 5 -11 10 0 6 2 10 4 10 3 0 8 -4 11 -10z m1795 -122 c0
-15 -8 -18 -44 -18 -34 0 -46 -4 -49 -17 -3 -10 -5 -1 -4 20 1 36 2 37 34 31
30 -6 33 -4 33 17 1 23 1 23 15 5 8 -11 15 -28 15 -38z m30 15 c0 -22 -2 -25
-10 -13 -13 20 -13 40 0 40 6 0 10 -12 10 -27z m-1044 -38 c-7 -29 -26 -34
-26 -7 0 18 20 45 28 37 2 -2 2 -16 -2 -30z m891 0 c-14 -28 -40 -35 -30 -7 9
26 24 42 33 37 5 -3 3 -16 -3 -30z m-1257 -54 c0 -5 -7 -14 -15 -21 -13 -10
-15 -9 -15 9 0 12 6 21 15 21 8 0 15 -4 15 -9z m610 -105 c0 -2 -7 -9 -15 -16
-13 -11 -14 -10 -9 4 5 14 24 23 24 12z m-753 -42 c-3 -3 -12 -4 -19 -1 -8 3
-5 6 6 6 11 1 17 -2 13 -5z"/>
<path d="M5665 1710 c3 -5 8 -10 11 -10 2 0 4 5 4 10 0 6 -5 10 -11 10 -5 0
-7 -4 -4 -10z"/>
<path d="M1699 1624 c-6 -8 -37 -21 -68 -30 -31 -9 -60 -20 -65 -25 -6 -5 -18
-9 -27 -9 -10 0 -19 -3 -22 -7 -2 -5 -3 -3 -1 4 5 20 -8 23 -37 7 -29 -14 -47
-53 -34 -73 3 -6 0 -11 -9 -11 -8 0 -16 6 -19 13 -3 10 -9 10 -26 0 -11 -7
-28 -13 -36 -13 -8 0 -15 -9 -15 -20 0 -11 5 -20 10 -20 6 0 10 -9 10 -20 0
-11 7 -20 16 -20 8 0 13 -4 10 -9 -3 -4 5 -18 18 -30 18 -17 25 -19 29 -9 3 7
6 3 6 -9 1 -13 -3 -23 -8 -23 -5 0 -12 -18 -16 -40 -4 -25 -12 -40 -21 -40 -8
0 -13 -3 -12 -7 6 -23 -17 -52 -57 -71 -39 -19 -45 -26 -45 -52 0 -25 -4 -30
-24 -30 -16 0 -23 -5 -22 -16 0 -9 -4 -19 -11 -21 -8 -3 -10 13 -6 56 4 42 2
61 -6 61 -6 0 -11 -17 -11 -40 0 -31 -4 -40 -17 -40 -17 -1 -17 -1 0 -11 10
-6 17 -22 17 -39 l0 -30 33 18 c17 10 36 28 42 40 5 12 13 22 18 22 5 0 31 10
58 21 40 17 48 25 44 40 -5 15 -1 19 19 19 19 0 26 5 26 20 0 11 7 20 15 20 8
0 24 9 35 20 16 16 25 18 40 10 10 -5 23 -10 28 -10 17 0 62 52 62 71 0 22 29
59 46 59 15 0 24 -33 24 -91 0 -25 3 -48 6 -52 10 -9 34 4 34 19 0 8 5 14 10
14 6 0 10 18 10 39 0 22 5 43 11 47 15 9 4 87 -17 119 -13 19 -15 37 -9 85 4
33 11 60 16 60 19 0 8 25 -16 36 -19 9 -27 9 -36 -2z m-207 -116 c-9 -9 -12
-7 -12 12 0 19 3 21 12 12 9 -9 9 -15 0 -24z"/>
<path d="M7901 1543 c-19 -23 -31 -31 -31 -22 0 9 -8 23 -18 32 -16 15 -19 15
-30 -3 -7 -12 -8 -21 -2 -25 16 -10 12 -19 -12 -30 -16 -7 -25 -22 -30 -54 -4
-24 -13 -49 -19 -57 -6 -8 -8 -15 -3 -15 63 -9 75 -5 130 49 19 17 34 45 38
67 4 21 13 46 19 56 8 13 8 22 1 29 -8 8 -20 1 -43 -27z"/>
<path d="M3031 1504 c-7 -29 -8 -51 -3 -56 8 -8 32 60 32 91 0 29 -19 6 -29
-35z"/>
<path d="M9107 1523 c-4 -3 -7 -15 -7 -25 0 -22 26 -24 34 -2 10 25 -10 45
-27 27z"/>
<path d="M2423 1474 c-3 -8 0 -27 6 -42 9 -19 10 -27 1 -30 -6 -2 1 -15 16
-29 30 -28 29 -28 37 12 3 18 0 38 -9 49 -8 11 -14 28 -14 38 0 22 -28 24 -37
2z"/>
<path d="M8890 1470 c0 -5 6 -10 14 -10 8 0 18 5 21 10 3 6 -3 10 -14 10 -12
0 -21 -4 -21 -10z"/>
<path d="M9057 1465 c6 -17 25 -15 31 3 2 7 -5 12 -17 12 -14 0 -19 -5 -14
-15z"/>
<path d="M3257 1453 c-11 -10 -8 -33 4 -33 11 0 39 24 39 34 0 8 -35 7 -43 -1z"/>
<path d="M9110 1450 c0 -5 5 -10 10 -10 6 0 10 5 10 10 0 6 -4 10 -10 10 -5 0
-10 -4 -10 -10z"/>
<path d="M9680 1430 c0 -5 6 -10 14 -10 8 0 18 5 21 10 3 6 -3 10 -14 10 -12
0 -21 -4 -21 -10z"/>
<path d="M1249 1395 c-13 -13 -31 -25 -40 -25 -22 0 -31 -26 -15 -39 10 -8 17
-7 26 4 15 18 60 20 60 3 0 -6 14 1 30 17 17 17 26 31 20 33 -5 2 -10 10 -10
18 0 23 -46 16 -71 -11z"/>
<path d="M8802 1403 c5 -25 28 -28 28 -4 0 12 -6 21 -16 21 -9 0 -14 -7 -12
-17z"/>
<path d="M6925 1370 c-4 -6 -2 -17 4 -24 11 -13 5 -46 -8 -46 -14 1 -41 28
-41 43 0 25 -70 -1 -81 -31 -13 -35 -11 -44 9 -38 15 5 18 0 19 -30 1 -35 0
-36 -28 -30 -27 5 -29 3 -29 -24 0 -17 -4 -30 -10 -30 -5 0 -10 11 -10 24 0
14 -4 28 -10 31 -5 3 -10 0 -10 -7 0 -8 -9 -21 -21 -31 -12 -11 -18 -25 -14
-36 7 -22 -17 -44 -39 -35 -11 4 -16 1 -16 -10 0 -10 -9 -16 -25 -16 -20 0
-25 -6 -31 -34 -6 -35 0 -56 17 -56 5 0 9 8 9 19 0 23 61 71 89 71 15 0 21 6
21 23 0 20 4 23 34 19 42 -5 76 22 76 59 0 15 7 32 15 39 13 10 13 15 3 21 -9
6 -8 10 5 15 9 3 17 14 18 23 0 12 3 10 11 -6 15 -30 19 -29 47 12 13 19 27
35 31 35 5 0 3 14 -3 30 -12 31 -21 37 -32 20z"/>
<path d="M1891 1359 c-19 -8 -21 -12 -11 -24 19 -23 40 -18 40 10 0 14 -1 25
-2 24 -2 0 -14 -5 -27 -10z"/>
<path d="M2036 1335 c-3 -9 0 -15 9 -15 16 0 20 16 6 24 -5 3 -11 -1 -15 -9z"/>
<path d="M2950 1310 c-6 -11 -8 -20 -6 -20 3 0 10 9 16 20 6 11 8 20 6 20 -3
0 -10 -9 -16 -20z"/>
<path d="M8556 1321 c-14 -5 -16 -10 -8 -15 7 -4 19 0 28 8 17 17 11 19 -20 7z"/>
<path d="M1139 1304 c-10 -13 -10 -17 2 -25 8 -5 16 -9 19 -9 3 0 11 4 19 9
12 8 12 12 2 25 -8 9 -17 16 -21 16 -4 0 -13 -7 -21 -16z"/>
<path d="M1280 1304 c0 -14 3 -14 15 -4 8 7 15 14 15 16 0 2 -7 4 -15 4 -8 0
-15 -7 -15 -16z"/>
<path d="M1829 1272 c-1 -15 -1 -30 0 -34 0 -5 -8 -17 -19 -28 -20 -20 -27
-50 -12 -50 17 1 31 17 38 45 4 16 13 36 21 43 19 19 16 39 -7 45 -16 4 -20 0
-21 -21z"/>
<path d="M8490 1284 c0 -9 7 -14 17 -12 25 5 28 28 4 28 -12 0 -21 -6 -21 -16z"/>
<path d="M2390 1280 c0 -5 7 -10 15 -10 8 0 15 5 15 10 0 6 -7 10 -15 10 -8 0
-15 -4 -15 -10z"/>
<path d="M2920 1269 c0 -5 5 -7 10 -4 6 3 10 8 10 11 0 2 -4 4 -10 4 -5 0 -10
-5 -10 -11z"/>
<path d="M1102 1240 c-11 -25 -19 -30 -48 -30 -19 0 -34 -4 -34 -8 0 -4 -18
-28 -40 -52 -22 -24 -40 -48 -40 -53 0 -5 -10 -17 -22 -27 -13 -10 -19 -22
-14 -27 5 -4 11 -2 13 5 5 14 33 17 33 3 0 -14 81 10 87 27 4 8 1 23 -5 33
-25 39 -9 57 46 50 6 -1 12 5 12 14 0 19 10 19 25 -1 6 -9 20 -14 31 -12 17 3
16 6 -9 28 -22 19 -26 30 -22 52 8 36 3 36 -13 -2z m-99 -157 c-7 -2 -21 -2
-30 0 -10 3 -4 5 12 5 17 0 24 -2 18 -5z"/>
<path d="M2000 1255 c0 -10 -10 -15 -30 -15 -16 0 -30 -3 -30 -8 0 -4 -18 -6
-40 -4 -32 3 -40 1 -40 -12 0 -9 -4 -16 -10 -16 -5 0 -10 -7 -10 -15 0 -7 -6
-18 -13 -22 -8 -4 -16 -16 -20 -26 -4 -9 -15 -20 -24 -23 -10 -3 -28 -10 -41
-15 l-23 -9 21 -22 c20 -21 20 -23 4 -35 -15 -11 -21 -8 -44 18 l-25 31 -15
-27 c-13 -25 -13 -28 5 -41 10 -8 27 -14 37 -14 14 0 18 -8 18 -40 0 -33 3
-40 20 -40 13 0 20 7 20 18 0 13 13 23 40 32 34 11 40 17 40 41 0 29 0 29 76
45 43 8 37 69 -8 76 -38 5 -33 28 5 28 27 0 37 5 42 20 3 11 10 20 14 20 17 0
63 48 57 59 -10 16 -26 14 -26 -4z m-160 -155 c0 -13 -7 -20 -20 -20 -18 0
-19 2 -8 20 7 11 16 20 20 20 5 0 8 -9 8 -20z"/>
<path d="M2600 1255 c0 -8 7 -15 15 -15 9 0 12 6 9 15 -4 8 -10 15 -15 15 -5
0 -9 -7 -9 -15z"/>
<path d="M3160 1255 c0 -8 7 -15 15 -15 8 0 15 7 15 15 0 8 -7 15 -15 15 -8 0
-15 -7 -15 -15z"/>
<path d="M8464 1252 c-16 -10 -28 -52 -15 -52 10 0 41 39 41 52 0 10 -12 10
-26 0z"/>
<path d="M4387 1226 c-4 -10 -5 -21 -2 -24 9 -9 17 6 13 25 -3 17 -4 17 -11
-1z"/>
<path d="M0 1105 c0 -98 1 -105 18 -96 40 22 162 162 162 187 0 3 -15 3 -32 0
-74 -14 -84 -14 -112 0 -16 8 -31 14 -33 14 -1 0 -3 -47 -3 -105z"/>
<path d="M1550 1200 c-21 -13 7 -42 33 -34 17 5 19 3 13 -20 -6 -25 -5 -26 14
-14 24 15 24 17 2 43 -22 26 -45 36 -62 25z"/>
<path d="M2246 1175 c-3 -8 -1 -15 4 -15 6 0 10 7 10 15 0 8 -2 15 -4 15 -2 0
-6 -7 -10 -15z"/>
<path d="M2310 1177 c0 -19 48 -38 54 -22 3 8 -7 18 -25 24 -21 7 -29 7 -29
-2z"/>
<path d="M1665 1170 c-3 -5 -1 -10 4 -10 6 0 11 5 11 10 0 6 -2 10 -4 10 -3 0
-8 -4 -11 -10z"/>
<path d="M3665 1170 c-3 -5 -1 -10 4 -10 6 0 11 5 11 10 0 6 -2 10 -4 10 -3 0
-8 -4 -11 -10z"/>
<path d="M2754 1156 c-10 -8 -16 -17 -13 -20 3 -3 14 3 24 14 21 23 17 26 -11
6z"/>
<path d="M4664 1156 c-4 -10 -2 -22 4 -28 8 -8 13 -7 18 6 4 10 2 22 -4 28 -8
8 -13 7 -18 -6z"/>
<path d="M5563 1159 c14 -8 22 -8 30 0 8 8 3 11 -18 11 -26 -1 -28 -2 -12 -11z"/>
<path d="M5488 1140 c-30 -16 -42 -17 -68 -9 -63 23 -94 -6 -83 -76 4 -28 0
-38 -26 -64 -18 -17 -38 -31 -45 -31 -8 0 -17 -11 -20 -25 -4 -16 -13 -25 -25
-25 -10 0 -33 -17 -50 -37 -49 -60 -45 -56 -204 -197 -36 -33 -65 -62 -62 -64
2 -3 -15 -17 -39 -33 -23 -16 -51 -38 -61 -49 -16 -18 -17 -23 -5 -30 25 -16
80 -12 80 5 0 17 18 19 40 5 12 -8 13 -13 3 -29 -14 -22 -6 -62 11 -55 7 3 19
-2 26 -11 17 -20 39 -19 47 3 4 9 12 23 19 30 10 10 13 8 16 -10 2 -12 8 -23
15 -25 11 -4 43 49 43 72 0 7 6 15 14 18 9 4 13 16 11 32 -1 16 3 29 11 32 8
3 14 10 14 16 0 5 21 30 46 54 37 35 42 43 26 43 -11 0 -23 6 -26 13 -3 6 -3
1 0 -12 l6 -24 -26 26 c-32 32 -32 39 0 63 27 20 64 86 64 116 0 10 7 18 15
18 8 0 12 -6 9 -14 -3 -8 -1 -17 5 -21 6 -3 11 1 11 11 0 9 11 27 25 40 14 13
25 27 25 32 0 12 54 62 68 62 7 0 12 9 12 20 0 12 10 25 25 32 14 6 28 22 31
35 4 13 14 24 23 25 9 0 22 2 30 2 18 1 25 21 14 41 -8 13 -13 12 -45 -5z
m-371 -508 c-9 -10 -17 -24 -17 -30 0 -7 -4 -12 -9 -12 -13 0 -6 46 9 65 9 11
16 13 23 6 7 -7 5 -16 -6 -29z m-262 -102 c3 -5 1 -10 -4 -10 -6 0 -11 5 -11
10 0 6 2 10 4 10 3 0 8 -4 11 -10z"/>
<path d="M2680 1090 c0 -5 -9 -10 -20 -10 -11 0 -20 -4 -20 -10 0 -5 8 -10 18
-10 21 1 54 25 45 33 -10 10 -23 8 -23 -3z"/>
<path d="M2590 1066 c0 -18 16 -29 30 -21 13 8 1 35 -16 35 -8 0 -14 -6 -14
-14z"/>
<path d="M2530 1015 c-11 -13 -7 -15 29 -15 30 0 41 4 41 15 0 10 -10 15 -29
15 -16 0 -34 -7 -41 -15z"/>
<path d="M6988 1003 c-16 -2 -28 -11 -28 -19 0 -10 -13 -14 -45 -14 -44 0 -93
-29 -81 -48 2 -4 -13 -6 -33 -4 l-38 4 0 -41 c0 -33 3 -41 18 -41 10 0 24 7
33 15 8 8 22 12 30 9 9 -3 16 -1 16 5 0 6 6 10 12 9 7 -2 14 7 16 20 5 30 20
28 28 -4 6 -22 8 -24 16 -10 5 9 13 16 18 16 14 0 12 -34 -1 -47 -6 -6 -9 -17
-6 -25 4 -9 8 -5 12 10 6 18 15 22 46 22 36 0 39 2 39 29 0 16 6 32 13 35 8 3
6 9 -7 20 -11 9 -16 16 -12 16 5 0 3 7 -5 16 -10 13 -10 17 2 25 16 10 10 10
-43 2z"/>
<path d="M1596 985 c-4 -10 1 -15 14 -15 11 0 20 7 20 15 0 8 -6 15 -14 15 -8
0 -16 -7 -20 -15z"/>
<path d="M2466 985 c4 -8 10 -12 15 -9 14 8 10 24 -6 24 -9 0 -12 -6 -9 -15z"/>
<path d="M4588 993 c7 -3 16 -2 19 1 4 3 -2 6 -13 5 -11 0 -14 -3 -6 -6z"/>
<path d="M1671 964 c0 -11 3 -14 6 -6 3 7 2 16 -1 19 -3 4 -6 -2 -5 -13z"/>
<path d="M6430 965 c0 -8 5 -15 10 -15 6 0 10 7 10 15 0 8 -4 15 -10 15 -5 0
-10 -7 -10 -15z"/>
<path d="M7816 971 c-4 -5 -2 -12 3 -15 5 -4 12 -2 15 3 4 5 2 12 -3 15 -5 4
-12 2 -15 -3z"/>
<path d="M868 953 c-16 -8 -28 -23 -28 -34 0 -21 -20 -25 -37 -8 -8 8 -14 5
-22 -10 -9 -16 -18 -20 -36 -15 -15 4 -25 2 -25 -5 0 -6 -9 -11 -19 -11 -11 0
-23 -4 -26 -10 -3 -5 -14 -10 -25 -10 -13 0 -17 -5 -13 -20 3 -12 0 -20 -7
-20 -13 0 -20 -7 -60 -62 -20 -26 -20 -26 0 -21 16 4 20 0 20 -21 0 -31 20
-34 44 -7 10 10 32 22 50 25 20 4 38 16 48 34 10 16 38 41 63 57 25 16 45 36
45 45 0 25 29 60 51 60 14 0 19 7 19 25 0 28 -4 29 -42 8z"/>
<path d="M6195 960 c-3 -5 -15 -10 -25 -10 -20 0 -44 -32 -33 -44 13 -12 34
-5 58 19 26 25 32 45 16 45 -6 0 -13 -4 -16 -10z"/>
<path d="M10170 950 c-12 -7 -13 -13 -3 -28 9 -15 8 -21 -8 -33 -23 -16 -25
-45 -4 -53 10 -3 17 3 21 19 3 14 10 25 15 25 5 0 9 18 9 40 0 42 -5 46 -30
30z"/>
<path d="M6568 924 c-9 -3 -20 -15 -24 -27 -10 -28 -6 -139 5 -150 4 -4 22 8
40 28 25 29 30 40 20 51 -9 12 -6 14 19 14 17 0 34 5 38 11 3 6 17 9 30 6 13
-2 24 0 24 4 0 5 -8 9 -17 9 -17 1 -17 1 0 14 17 13 17 14 0 22 -10 4 -29 9
-43 10 -14 2 -36 5 -50 8 -14 2 -33 2 -42 0z"/>
<path d="M235 876 c-4 -25 -18 -60 -31 -77 -30 -41 -30 -43 1 -35 20 5 27 2
35 -16 7 -18 9 -19 9 -5 1 24 31 22 31 -3 0 -11 7 -20 15 -20 8 0 15 -8 15
-19 0 -10 12 -31 26 -46 16 -17 24 -35 21 -47 -4 -14 -2 -18 10 -14 8 3 20 6
26 6 16 0 67 48 67 62 0 9 -3 9 -12 0 -16 -16 -28 -15 -28 3 0 8 -9 15 -20 15
-17 0 -20 7 -20 40 0 22 5 40 10 40 6 0 10 11 10 25 0 15 6 25 15 25 8 0 17
12 21 28 3 15 10 37 15 50 12 31 12 32 -8 32 -17 0 -43 -40 -43 -67 0 -7 -8
-13 -17 -13 -22 0 -63 42 -63 64 0 12 -10 16 -39 16 -39 0 -40 0 -46 -44z m82
-138 c-3 -8 -6 -5 -6 6 -1 11 2 17 5 13 3 -3 4 -12 1 -19z"/>
<path d="M735 910 c4 -6 11 -8 16 -5 14 9 11 15 -7 15 -8 0 -12 -5 -9 -10z"/>
<path d="M910 905 c-7 -8 -9 -15 -6 -15 4 0 14 7 22 15 9 8 11 15 6 15 -5 0
-15 -7 -22 -15z"/>
<path d="M2982 856 c-12 -28 -5 -41 15 -25 14 13 18 49 5 49 -5 0 -14 -11 -20
-24z"/>
<path d="M7074 855 c-4 -9 -19 -15 -39 -15 -35 0 -45 -13 -45 -58 0 -32 -17
-18 -22 18 l-3 24 -27 -27 c-23 -23 -26 -35 -27 -87 0 -57 9 -74 25 -48 5 8
11 6 20 -6 7 -10 22 -16 36 -14 19 2 24 -2 26 -25 2 -16 10 -31 17 -33 8 -3
11 -12 8 -20 -3 -8 0 -14 5 -14 14 0 20 10 26 43 3 15 7 35 10 45 4 13 -1 23
-19 32 -29 16 -31 23 -8 49 23 28 56 10 51 -27 -3 -25 20 -41 24 -17 0 6 8 15
16 21 9 6 11 14 5 17 -11 7 -4 77 8 77 19 0 8 35 -18 57 -30 26 -61 30 -69 8z
m45 -102 c0 -25 -1 -26 -9 -8 -12 27 -12 35 0 35 6 0 10 -12 9 -27z"/>
<path d="M6413 846 c-20 -9 -23 -19 -23 -64 0 -29 -5 -61 -12 -71 -9 -15 -9
-22 3 -32 24 -23 56 -21 63 4 10 37 7 102 -6 115 -9 9 -9 12 0 12 7 0 12 7 12
15 0 8 4 15 9 15 5 0 12 -28 16 -61 8 -64 25 -65 25 -2 0 72 -31 97 -87 69z"/>
<path d="M5360 829 c0 -5 5 -7 10 -4 6 3 10 8 10 11 0 2 -4 4 -10 4 -5 0 -10
-5 -10 -11z"/>
<path d="M6720 840 c0 -3 -4 -20 -9 -38 -13 -42 7 -43 31 -1 10 16 13 27 7 23
-6 -4 -15 0 -20 7 -5 8 -9 12 -9 9z"/>
<path d="M6010 800 c0 -5 5 -10 10 -10 6 0 10 5 10 10 0 6 -4 10 -10 10 -5 0
-10 -4 -10 -10z"/>
<path d="M6878 803 c-23 -6 -69 -80 -70 -113 -1 -27 -2 -27 -79 -33 -72 -5
-128 -26 -129 -49 0 -10 85 -3 145 12 61 16 85 31 105 69 8 16 23 45 34 65 10
20 22 36 27 36 5 0 9 5 9 10 0 10 -12 11 -42 3z"/>
<path d="M2104 767 c-16 -18 5 -101 22 -84 15 15 20 73 8 85 -16 14 -16 14
-30 -1z"/>
<path d="M5320 770 c0 -5 5 -10 11 -10 5 0 7 5 4 10 -3 6 -8 10 -11 10 -2 0
-4 -4 -4 -10z"/>
<path d="M5280 746 c0 -8 -6 -16 -12 -19 -10 -4 -10 -7 -1 -18 18 -18 58 18
42 38 -15 17 -29 17 -29 -1z"/>
<path d="M400 725 c0 -15 4 -24 10 -20 6 3 10 12 10 20 0 8 -4 17 -10 20 -6 4
-10 -5 -10 -20z"/>
<path d="M6765 707 c-8 -19 -2 -31 13 -26 5 2 6 13 2 24 -7 19 -8 19 -15 2z"/>
<path d="M207 703 c-12 -11 -8 -23 7 -23 8 0 16 7 20 15 5 15 -14 21 -27 8z"/>
<path d="M710 670 c0 -11 2 -20 4 -20 2 0 6 9 9 20 3 11 1 20 -4 20 -5 0 -9
-9 -9 -20z"/>
<path d="M2066 644 c-3 -9 -4 -20 0 -25 8 -13 44 9 44 26 0 20 -36 19 -44 -1z"/>
<path d="M1586 617 c-22 -84 -23 -97 -7 -102 17 -5 41 -57 41 -87 0 -8 9 -23
19 -32 19 -17 20 -17 34 11 8 15 12 34 10 41 -3 7 1 10 11 6 8 -3 21 -2 27 2
9 5 5 10 -12 17 -13 6 -28 9 -33 8 -5 -1 -6 8 -3 19 3 11 0 32 -7 45 -18 34
-76 87 -80 72z"/>
<path d="M2041 601 c-10 -6 -10 -10 -1 -16 13 -8 24 -1 19 14 -3 6 -10 7 -18
2z"/>
<path d="M23 574 c-28 -31 -29 -54 -3 -54 21 0 24 4 34 53 8 33 -1 33 -31 1z"/>
<path d="M2935 589 c-4 -6 -5 -13 -2 -16 7 -7 27 6 27 18 0 12 -17 12 -25 -2z"/>
<path d="M5930 585 c0 -8 9 -15 20 -15 11 0 20 7 20 15 0 8 -9 15 -20 15 -11
0 -20 -7 -20 -15z"/>
<path d="M6558 589 c-5 -15 -108 -22 -124 -8 -8 7 -15 6 -20 -2 -4 -7 -2 -15
4 -17 7 -2 12 -8 12 -14 0 -6 -9 -3 -19 6 -19 17 -21 17 -50 0 -17 -10 -31
-22 -31 -26 0 -4 -6 -8 -14 -8 -8 0 -18 -10 -21 -21 -6 -18 -13 -20 -41 -16
-18 3 -36 1 -39 -4 -4 -5 -16 -9 -28 -9 -17 0 -19 -2 -8 -9 18 -11 6 -61 -14
-61 -8 0 -15 4 -15 9 0 10 -80 8 -98 -3 -8 -5 -12 1 -12 18 0 14 5 28 10 31
17 11 -9 45 -34 45 -24 0 -66 -38 -66 -59 0 -9 -8 -11 -27 -7 -18 4 -23 3 -15
-2 11 -7 8 -15 -13 -36 -27 -27 -47 -26 -44 2 3 33 -1 35 -23 15 -24 -21 -78
-36 -78 -22 0 5 -9 9 -20 9 -17 0 -19 -5 -14 -24 7 -31 -18 -46 -80 -46 -25 0
-57 -5 -71 -12 -19 -8 -31 -8 -51 1 -22 10 -38 7 -101 -14 -41 -14 -98 -25
-125 -25 -42 0 -51 -3 -55 -21 -4 -16 -11 -19 -27 -14 -11 4 -30 7 -41 7 -69
-3 -122 -8 -132 -15 -6 -4 -18 -4 -26 -1 -8 3 -23 -3 -33 -14 -13 -13 -34 -20
-63 -21 -25 0 -48 -6 -52 -13 -6 -9 -13 -9 -31 -1 -35 17 -76 24 -82 14 -3 -5
-26 -12 -51 -15 -47 -8 -53 -14 -33 -34 17 -17 -4 -31 -35 -25 -12 2 -37 -5
-54 -16 -34 -21 -44 -51 -18 -51 8 0 15 -8 15 -19 0 -26 28 -28 382 -27 228 2
310 5 321 15 9 6 32 13 52 14 21 2 43 10 50 20 7 9 19 17 28 17 9 0 22 6 29
13 7 7 16 14 20 16 4 1 28 11 54 22 l46 21 21 -23 21 -22 34 39 c24 28 33 33
30 19 -4 -26 29 -32 47 -9 11 16 15 16 30 4 11 -9 19 -10 23 -3 12 18 48 32
70 26 14 -3 24 0 28 10 7 20 30 11 37 -14 5 -17 8 -18 44 -5 25 9 37 19 35 29
-3 17 31 41 41 30 4 -3 13 0 22 7 9 7 18 10 22 7 15 -16 -5 -134 -22 -129 -6
2 -9 21 -7 42 3 56 -14 50 -23 -7 -5 -32 -9 -42 -15 -32 -7 11 -15 8 -38 -14
-15 -15 -33 -27 -38 -27 -13 0 -49 -38 -43 -45 3 -2 62 -8 132 -11 99 -6 127
-4 127 6 0 8 -10 11 -29 8 -17 -2 -28 -1 -25 4 3 4 -4 8 -15 8 -14 0 -21 6
-21 20 0 16 7 20 36 20 31 0 36 3 31 20 -3 12 0 20 8 20 8 0 11 8 8 20 -3 12
1 26 10 33 8 7 18 30 22 51 7 43 16 54 59 76 25 13 29 13 41 -3 12 -16 13 -16
18 2 3 14 11 18 26 14 12 -3 21 -1 21 6 0 6 15 11 33 11 38 0 87 20 87 35 0
18 38 45 44 32 2 -7 5 -2 5 11 1 12 -3 22 -9 22 -5 0 -10 5 -10 10 0 7 7 7 21
0 37 -20 58 -48 52 -69 -4 -15 -1 -21 10 -21 9 0 19 5 22 10 3 6 1 10 -4 10
-6 0 -11 13 -11 28 0 27 2 29 44 29 25 0 52 5 60 13 23 19 21 67 -4 75 -23 7
-27 25 -6 25 8 0 18 5 21 10 3 6 -4 10 -18 10 -16 0 -28 -8 -35 -25 -17 -36
-29 -31 -37 15 -6 38 -19 52 -27 29z m-5 -46 c8 -7 -11 -33 -23 -33 -5 0 -6 9
-3 20 5 20 15 25 26 13z m97 -41 c0 -10 -3 -22 -7 -25 -10 -11 -32 13 -26 29
8 20 33 17 33 -4z m-206 0 c2 -4 1 -14 -4 -22 -7 -11 -12 -12 -21 -3 -6 6 -8
16 -5 22 8 13 23 14 30 3z m-187 -79 c4 -11 -34 -39 -42 -31 -3 2 -2 14 2 26
6 24 33 27 40 5z m-157 -204 c0 -10 -4 -19 -10 -19 -5 0 -10 12 -10 26 0 14 4
23 10 19 6 -3 10 -15 10 -26z"/>
<path d="M176 565 c-19 -29 -20 -42 -3 -48 8 -3 5 -12 -10 -29 -13 -13 -23
-32 -23 -40 0 -9 -11 -29 -24 -45 -12 -15 -28 -38 -35 -50 -11 -22 -35 -31
-44 -15 -16 25 -17 71 -3 85 9 9 16 24 15 34 0 15 -2 14 -9 -4 -6 -15 -15 -21
-25 -17 -13 5 -15 -5 -15 -60 0 -54 3 -66 16 -66 13 0 15 -7 10 -31 -3 -18 -1
-38 5 -45 6 -7 12 -32 14 -56 3 -54 2 -53 20 -38 9 8 28 10 55 5 26 -4 40 -3
40 4 0 6 -4 11 -10 11 -5 0 -10 20 -10 45 0 38 3 45 19 45 11 0 23 5 26 10 10
17 25 11 25 -10 0 -11 -4 -20 -10 -20 -5 0 -10 -7 -10 -15 0 -8 -4 -15 -9 -15
-5 0 -11 -7 -15 -15 -3 -9 0 -15 9 -15 8 0 15 7 15 15 0 8 6 15 14 15 18 0 77
70 69 83 -3 5 0 13 7 17 7 5 14 25 14 46 1 28 7 40 24 47 12 6 22 18 22 29 0
10 6 18 14 18 7 0 16 12 19 26 3 18 1 22 -6 15 -17 -17 -41 -12 -59 13 -11 15
-13 27 -7 37 13 22 11 33 -5 20 -11 -10 -16 -8 -24 5 -5 10 -17 19 -27 20 -13
2 -16 -3 -11 -19 4 -20 3 -19 -19 5 l-23 27 -16 -24z m91 -41 c-3 -3 -12 -4
-19 -1 -8 3 -5 6 6 6 11 1 17 -2 13 -5z"/>
<path d="M1068 554 c-41 -22 -35 -46 15 -66 23 -10 48 -18 55 -18 13 0 15 -10
4 -25 -4 -6 -33 -29 -64 -53 -32 -23 -65 -54 -74 -67 -9 -14 -23 -25 -30 -25
-8 0 -14 -4 -14 -10 0 -5 -9 -10 -20 -10 -11 0 -20 -4 -20 -10 0 -5 -10 -10
-21 -10 -16 0 -20 -5 -16 -20 3 -11 1 -20 -5 -20 -6 0 -8 16 -6 36 4 31 2 34
-8 19 -12 -16 -15 -16 -28 -2 -10 10 -27 14 -46 11 -27 -5 -30 -3 -30 21 0 15
9 40 21 56 21 29 20 59 -1 59 -6 0 -16 -13 -21 -30 -8 -21 -20 -32 -42 -38
-22 -6 -38 -21 -59 -57 -33 -59 -50 -95 -54 -114 -1 -7 -12 -20 -24 -28 -15
-11 -20 -23 -18 -46 2 -17 8 -32 14 -34 13 -4 64 39 64 53 0 5 9 15 19 21 11
7 22 29 26 54 7 43 35 79 60 79 19 0 19 -5 -1 -35 -10 -15 -14 -37 -12 -55 3
-16 1 -30 -4 -30 -4 0 -8 -7 -8 -15 0 -8 5 -15 10 -15 19 0 10 -25 -12 -35
-28 -12 -38 -55 -13 -55 29 0 56 21 70 53 13 32 14 131 2 144 -14 13 -6 23 18
21 16 -2 27 -10 31 -23 3 -11 12 -34 19 -51 8 -16 16 -47 18 -68 5 -46 18 -60
46 -51 24 7 29 35 7 35 -27 0 -28 21 -1 56 19 24 24 41 19 57 l-6 22 21 -22
c12 -13 25 -23 29 -23 10 0 34 41 28 47 -8 8 13 43 26 43 7 0 9 -14 6 -38 -4
-24 0 -45 8 -57 8 -10 14 -31 14 -47 0 -15 4 -28 9 -28 11 0 17 17 26 78 4 23
11 42 16 42 9 0 13 -15 10 -33 -1 -5 4 -7 11 -5 7 3 18 30 23 61 6 30 13 58
16 62 10 9 80 -22 96 -43 12 -15 13 -14 7 12 l-7 28 27 -23 c26 -23 34 -53 16
-64 -16 -10 -11 -48 10 -75 l20 -25 0 46 c0 34 5 49 16 53 22 8 30 0 17 -16
-18 -22 6 -127 32 -144 14 -9 64 -17 133 -21 99 -5 112 -4 118 11 7 19 -24 85
-43 93 -7 3 -13 11 -13 17 0 13 -41 36 -62 36 -5 0 -19 12 -31 26 l-21 27 -9
-24 c-9 -23 -10 -22 -21 16 -16 51 -44 95 -61 95 -8 0 -20 6 -27 13 -7 8 -26
17 -41 21 -22 5 -27 11 -22 26 4 13 0 22 -14 29 -11 6 -22 19 -26 30 -3 10
-18 21 -34 24 -17 4 -41 22 -61 47 -34 44 -57 49 -102 24z m210 -172 c2 -7 -2
-10 -12 -6 -9 3 -16 11 -16 16 0 13 23 5 28 -10z"/>
<path d="M5892 535 l-23 -27 23 7 c30 10 30 10 26 30 -2 14 -7 12 -26 -10z"/>
<path d="M6916 552 c-3 -6 -1 -14 5 -17 15 -10 25 3 12 16 -7 7 -13 7 -17 1z"/>
<path d="M310 530 c0 -5 5 -10 10 -10 6 0 10 5 10 10 0 6 -4 10 -10 10 -5 0
-10 -4 -10 -10z"/>
<path d="M52 509 c2 -7 10 -15 17 -17 8 -3 12 1 9 9 -2 7 -10 15 -17 17 -8 3
-12 -1 -9 -9z"/>
<path d="M6070 507 c0 -19 16 -31 24 -18 3 5 -1 14 -9 21 -12 10 -15 10 -15
-3z"/>
<path d="M6710 506 c0 -8 5 -18 12 -22 7 -4 8 -3 4 4 -4 7 -2 12 3 12 6 0 11
5 11 10 0 6 -7 10 -15 10 -8 0 -15 -6 -15 -14z"/>
<path d="M5833 493 c-19 -7 -16 -53 2 -53 9 0 18 6 21 14 7 19 -8 44 -23 39z"/>
<path d="M880 470 c0 -5 5 -10 10 -10 6 0 10 5 10 10 0 6 -4 10 -10 10 -5 0
-10 -4 -10 -10z"/>
<path d="M1831 454 c0 -11 3 -14 6 -6 3 7 2 16 -1 19 -3 4 -6 -2 -5 -13z"/>
<path d="M846 407 c-41 -47 -53 -76 -35 -88 13 -8 58 -4 69 7 2 3 -2 14 -9 26
-10 16 -10 26 0 49 17 41 8 43 -25 6z"/>
<path d="M1724 424 c9 -8 16 -20 16 -25 0 -5 7 -9 15 -9 24 0 17 26 -10 38
-35 16 -39 15 -21 -4z"/>
<path d="M4871 402 c-1 -47 15 -54 31 -13 6 18 5 22 -6 18 -10 -4 -16 2 -19
16 -2 12 -5 3 -6 -21z"/>
<path d="M4320 400 c0 -19 3 -21 12 -12 9 9 9 15 0 24 -9 9 -12 7 -12 -12z"/>
<path d="M4386 411 c-4 -7 -5 -15 -2 -18 9 -9 19 4 14 18 -4 11 -6 11 -12 0z"/>
<path d="M4290 400 c0 -5 5 -10 10 -10 6 0 10 5 10 10 0 6 -4 10 -10 10 -5 0
-10 -4 -10 -10z"/>
<path d="M4928 378 c9 -9 15 -9 24 0 9 9 7 12 -12 12 -19 0 -21 -3 -12 -12z"/>
<path d="M1700 360 c-12 -7 -12 -12 -3 -21 15 -15 26 -7 21 15 -2 11 -7 13
-18 6z"/>
<path d="M1755 360 c-19 -8 -19 -9 3 -9 12 -1 22 4 22 9 0 6 -1 10 -2 9 -2 0
-12 -4 -23 -9z"/>
<path d="M1725 311 c-6 -11 9 -23 19 -14 9 9 7 23 -3 23 -6 0 -12 -4 -16 -9z"/>
<path d="M6256 135 c9 -14 20 -22 26 -19 5 3 15 -2 23 -12 10 -15 16 -16 25
-7 14 13 5 33 -16 33 -8 0 -14 7 -14 15 0 10 -10 15 -30 15 -30 0 -30 0 -14
-25z"/>
<path d="M6186 134 c-11 -28 -6 -61 10 -75 13 -10 17 -10 25 2 12 19 11 36 -1
44 -5 3 -10 15 -10 26 0 23 -15 25 -24 3z"/>
<path d="M980 120 c0 -5 5 -10 10 -10 6 0 10 5 10 10 0 6 -4 10 -10 10 -5 0
-10 -4 -10 -10z"/>
<path d="M6161 104 c0 -11 3 -14 6 -6 3 7 2 16 -1 19 -3 4 -6 -2 -5 -13z"/>
<path d="M6356 101 c-4 -7 -5 -15 -2 -18 9 -9 19 4 14 18 -4 11 -6 11 -12 0z"/>
<path d="M35 90 c-3 -5 -2 -10 4 -10 5 0 13 5 16 10 3 6 2 10 -4 10 -5 0 -13
-4 -16 -10z"/>
<path d="M2230 78 c0 -4 7 -8 15 -8 8 0 15 4 15 8 0 5 -7 9 -15 9 -8 0 -15 -4
-15 -9z"/>
<path d="M3710 70 c0 -5 7 -10 15 -10 8 0 15 5 15 10 0 6 -7 10 -15 10 -8 0
-15 -4 -15 -10z"/>
<path d="M4221 70 c-19 -11 -6 -40 16 -39 11 0 13 3 5 6 -9 4 -10 8 -2 18 13
16 -1 27 -19 15z"/>
<path d="M5832 69 c2 -7 10 -15 17 -17 8 -3 12 1 9 9 -2 7 -10 15 -17 17 -8 3
-12 -1 -9 -9z"/>
<path d="M4477 64 c-9 -9 4 -35 14 -28 5 3 9 12 9 20 0 14 -12 19 -23 8z"/>
<path d="M1700 50 c0 -5 5 -10 10 -10 6 0 10 5 10 10 0 6 -4 10 -10 10 -5 0
-10 -4 -10 -10z"/>
<path d="M4318 43 c7 -3 16 -2 19 1 4 3 -2 6 -13 5 -11 0 -14 -3 -6 -6z"/>
<path d="M5746 43 c-11 -11 -6 -23 9 -23 8 0 15 4 15 9 0 13 -16 22 -24 14z"/>
<path d="M6660 39 c0 -5 5 -7 10 -4 6 3 10 8 10 11 0 2 -4 4 -10 4 -5 0 -10
-5 -10 -11z"/>
<path d="M6700 30 c0 -5 4 -10 9 -10 6 0 13 5 16 10 3 6 -1 10 -9 10 -9 0 -16
-4 -16 -10z"/>
<path d="M7305 30 c3 -5 8 -10 11 -10 2 0 4 5 4 10 0 6 -5 10 -11 10 -5 0 -7
-4 -4 -10z"/>
</g>
</svg>
